<svg xmlns="http://www.w3.org/2000/svg" xmlns:xlink="http://www.w3.org/1999/xlink" version="1.1" width="256" height="256" viewBox="0 0 256 256" xml:space="preserve">
<desc>Created with Fabric.js 1.7.22</desc>
<defs>
</defs>
<g transform="translate(128 128) scale(0.72 0.72)" style="">
	<g style="stroke: none; stroke-width: 0; stroke-dasharray: none; stroke-linecap: butt; stroke-linejoin: miter; stroke-miterlimit: 10; fill: none; fill-rule: nonzero; opacity: 1;" transform="translate(-175.05 -175.05000000000004) scale(3.89 3.89)" >
	<path d="M 14.971 86.134 c -0.193 0 -0.388 -0.038 -0.574 -0.116 c -0.551 -0.231 -0.909 -0.77 -0.909 -1.368 V 67.853 H 5.177 C 2.322 67.853 0 65.531 0 62.676 V 9.043 c 0 -2.855 2.322 -5.177 5.177 -5.177 h 79.646 C 87.678 3.866 90 6.189 90 9.043 v 53.633 c 0 2.855 -2.322 5.177 -5.177 5.177 H 34.205 L 16.011 85.709 C 15.728 85.987 15.353 86.134 14.971 86.134 z M 5.177 6.833 c -1.218 0 -2.21 0.991 -2.21 2.21 v 53.633 c 0 1.219 0.991 2.21 2.21 2.21 h 9.795 c 0.82 0 1.484 0.664 1.484 1.484 v 14.746 L 32.56 65.31 c 0.278 -0.272 0.65 -0.425 1.039 -0.425 h 51.224 c 1.219 0 2.21 -0.991 2.21 -2.21 V 9.043 c 0 -1.218 -0.991 -2.21 -2.21 -2.21 H 5.177 z" style="stroke: none; stroke-width: 1; stroke-dasharray: none; stroke-linecap: butt; stroke-linejoin: miter; stroke-miterlimit: 10; fill: rgb(0,0,0); fill-rule: nonzero; opacity: 1;" transform=" matrix(1 0 0 1 0 0) " stroke-linecap="round" />
	<path d="M 55.379 51.575 c -0.237 0 -0.473 -0.056 -0.691 -0.17 L 45 46.312 l -9.689 5.094 c -0.499 0.263 -1.106 0.217 -1.562 -0.113 c -0.457 -0.332 -0.685 -0.894 -0.59 -1.452 l 1.851 -10.787 l -7.838 -7.64 c -0.405 -0.394 -0.55 -0.984 -0.376 -1.521 c 0.175 -0.537 0.639 -0.929 1.198 -1.01 l 10.832 -1.574 l 4.844 -9.816 c 0.25 -0.506 0.766 -0.827 1.33 -0.827 s 1.081 0.321 1.33 0.827 l 4.845 9.816 l 10.832 1.574 c 0.558 0.081 1.023 0.473 1.198 1.01 c 0.174 0.537 0.029 1.127 -0.376 1.521 l -7.838 7.64 l 1.851 10.788 c 0.096 0.557 -0.133 1.119 -0.59 1.452 C 55.992 51.48 55.686 51.575 55.379 51.575 z M 45 43.152 c 0.237 0 0.474 0.057 0.69 0.17 l 7.718 4.057 l -1.474 -8.594 c -0.082 -0.481 0.077 -0.972 0.427 -1.313 l 6.243 -6.086 l -8.629 -1.254 c -0.483 -0.07 -0.901 -0.374 -1.116 -0.811 L 45 21.501 l -3.859 7.82 c -0.216 0.438 -0.634 0.741 -1.117 0.811 l -8.629 1.254 l 6.244 6.086 c 0.35 0.341 0.509 0.832 0.427 1.313 l -1.474 8.594 l 7.718 -4.057 C 44.526 43.209 44.763 43.152 45 43.152 z" style="stroke: none; stroke-width: 1; stroke-dasharray: none; stroke-linecap: butt; stroke-linejoin: miter; stroke-miterlimit: 10; fill: rgb(0,0,0); fill-rule: nonzero; opacity: 1;" transform=" matrix(1 0 0 1 0 0) " stroke-linecap="round" />
</g>
</g>
</svg>