<svg xmlns="http://www.w3.org/2000/svg" xmlns:xlink="http://www.w3.org/1999/xlink" version="1.1" width="256" height="256" viewBox="0 0 256 256" xml:space="preserve">
<desc>Created with Fabric.js 1.7.22</desc>
<defs>
</defs>
<g transform="translate(128 128) scale(0.72 0.72)" style="">
	<g style="stroke: none; stroke-width: 0; stroke-dasharray: none; stroke-linecap: butt; stroke-linejoin: miter; stroke-miterlimit: 10; fill: none; fill-rule: nonzero; opacity: 1;" transform="translate(-175.05 -175.05000000000004) scale(3.89 3.89)" >
	<path d="M 45 89.999 c -0.776 0 -1.551 -0.123 -2.29 -0.368 c -19.604 -6.512 -32.272 -22.013 -32.272 -39.492 V 17.612 c 0 -2.276 1.619 -4.223 3.85 -4.628 h 0 c 10.74 -1.954 20.111 -5.993 27.853 -12.005 c 1.684 -1.307 4.035 -1.307 5.719 0 c 7.742 6.013 17.113 10.052 27.853 12.005 c 2.23 0.405 3.85 2.352 3.85 4.628 v 32.527 c 0 17.479 -12.667 32.981 -32.271 39.492 C 46.552 89.876 45.776 89.999 45 89.999 z M 45 1.999 c -0.576 0 -1.152 0.187 -1.633 0.56 C 35.369 8.77 25.706 12.939 14.646 14.952 c 0 0 0 0 0 0 c -1.279 0.232 -2.208 1.351 -2.208 2.66 v 32.527 c 0 16.603 12.13 31.359 30.903 37.594 c 1.069 0.355 2.248 0.355 3.318 0 c 18.772 -6.234 30.902 -20.991 30.902 -37.594 V 17.612 c 0 -1.309 -0.929 -2.428 -2.207 -2.66 C 64.295 12.939 54.632 8.77 46.633 2.559 C 46.152 2.185 45.576 1.999 45 1.999 z M 14.467 13.968 h 0.01 H 14.467 z" style="stroke: none; stroke-width: 1; stroke-dasharray: none; stroke-linecap: butt; stroke-linejoin: miter; stroke-miterlimit: 10; fill: rgb(0,0,0); fill-rule: nonzero; opacity: 1;" transform=" matrix(1 0 0 1 0 0) " stroke-linecap="round" />
	<path d="M 45 65.5 c -11.855 0 -21.5 -9.645 -21.5 -21.5 c 0 -11.855 9.645 -21.5 21.5 -21.5 c 11.855 0 21.5 9.645 21.5 21.5 C 66.5 55.855 56.855 65.5 45 65.5 z M 45 24.5 c -10.752 0 -19.5 8.748 -19.5 19.5 c 0 10.752 8.748 19.5 19.5 19.5 c 10.752 0 19.5 -8.748 19.5 -19.5 C 64.5 33.248 55.752 24.5 45 24.5 z" style="stroke: none; stroke-width: 1; stroke-dasharray: none; stroke-linecap: butt; stroke-linejoin: miter; stroke-miterlimit: 10; fill: rgb(0,0,0); fill-rule: nonzero; opacity: 1;" transform=" matrix(1 0 0 1 0 0) " stroke-linecap="round" />
	<path d="M 47.833 43 h -5.666 c -1.023 0 -1.855 -0.833 -1.855 -1.855 V 36.75 c 0 -1.023 0.833 -1.855 1.855 -1.855 h 5.666 c 1.022 0 1.854 0.833 1.854 1.855 c 0 0.552 0.447 1 1 1 s 1 -0.448 1 -1 c 0 -2.126 -1.729 -3.855 -3.854 -3.855 H 46 v -2.536 c 0 -0.552 -0.448 -1 -1 -1 s -1 0.448 -1 1 v 2.536 h -1.833 c -2.126 0 -3.855 1.729 -3.855 3.855 v 4.395 c 0 2.126 1.729 3.855 3.855 3.855 h 5.666 c 1.022 0 1.854 0.833 1.854 1.855 v 4.396 c 0 1.022 -0.832 1.854 -1.854 1.854 h -5.666 c -1.023 0 -1.855 -0.832 -1.855 -1.854 c 0 -0.553 -0.448 -1 -1 -1 s -1 0.447 -1 1 c 0 2.125 1.729 3.854 3.855 3.854 H 44 v 2.537 c 0 0.553 0.448 1 1 1 s 1 -0.447 1 -1 v -2.537 h 1.833 c 2.125 0 3.854 -1.729 3.854 -3.854 v -4.396 C 51.688 44.729 49.958 43 47.833 43 z" style="stroke: none; stroke-width: 1; stroke-dasharray: none; stroke-linecap: butt; stroke-linejoin: miter; stroke-miterlimit: 10; fill: rgb(0,0,0); fill-rule: nonzero; opacity: 1;" transform=" matrix(1 0 0 1 0 0) " stroke-linecap="round" />
</g>
</g>
</svg>