<?xml version="1.0" encoding="UTF-8" standalone="no" ?>
<!DOCTYPE svg PUBLIC "-//W3C//DTD SVG 1.1//EN" "http://www.w3.org/Graphics/SVG/1.1/DTD/svg11.dtd">
<svg xmlns="http://www.w3.org/2000/svg" xmlns:xlink="http://www.w3.org/1999/xlink" version="1.1" width="1080" height="1080" viewBox="0 0 1080 1080" xml:space="preserve">
<desc>Created with Fabric.js 4.2.0</desc>
<defs>
</defs>
<g transform="matrix(1 0 0 1 540 540)" id="6b45cf59-2708-41c3-b199-8f450ea04ae5"  >
<rect style="stroke: none; stroke-width: 1; stroke-dasharray: none; stroke-linecap: butt; stroke-dashoffset: 0; stroke-linejoin: miter; stroke-miterlimit: 4; fill: rgb(255,255,255); fill-rule: nonzero; opacity: 1;" vector-effect="non-scaling-stroke"  x="-540" y="-540" rx="0" ry="0" width="1080" height="1080" />
</g>
<g transform="matrix(1 0 0 1 540 540)" id="87fcd839-24bf-4555-a069-dc76f7487f1d"  >
</g>
<g transform="matrix(0.51 0 0 0.51 548.5 548.5)" id="84c768eb-07b0-498c-847c-a6c4af8c3aa4"  >
<path style="stroke: rgb(255,255,255); stroke-width: 17; stroke-dasharray: none; stroke-linecap: butt; stroke-dashoffset: 0; stroke-linejoin: miter; stroke-miterlimit: 4; fill: rgb(212,205,205); fill-rule: nonzero; opacity: 1;" vector-effect="non-scaling-stroke"  transform=" translate(-511.9, -511.82)" d="M 924.8 625.7 L 859.3 569.7 C 862.4 550.7 864 531.3000000000001 864 511.90000000000003 C 864 492.5 862.4 473.1 859.3 454.1 L 924.8 398.1 C 934.9154359742477 389.44047526377983 938.6181789147141 375.4257923063153 934.0999999999999 362.90000000000003 L 933.1999999999999 360.3 C 915.167870451395 309.9026428560997 888.166328391822 263.1835380880307 853.4999999999998 222.39999999999992 L 851.6999999999999 220.3 C 843.09136858319 210.17786892687184 829.1387141856563 206.40150947454788 816.5999999999999 210.8 L 735.3 239.70000000000002 C 705.3 215.10000000000002 671.8 195.70000000000002 635.5999999999999 182.10000000000002 L 619.8999999999999 97.10000000000002 C 617.4747725680194 84.00505606682307 607.2042635110729 73.77435518451591 594.0999999999999 71.40000000000002 L 591.3999999999999 70.90000000000002 C 539.2999999999998 61.50000000000002 484.4999999999999 61.50000000000002 432.39999999999986 70.90000000000002 L 429.6999999999999 71.40000000000002 C 416.59573648892683 73.77435518451591 406.3252274319803 84.00505606682309 403.89999999999986 97.10000000000004 L 388.09999999999985 182.50000000000003 C 352.1888500706202 196.10283184815435 318.74665392746715 215.49254961196235 289.0999999999998 239.90000000000018 L 207.19999999999985 210.80000000000004 C 194.66261919245068 206.3656570866351 180.68939741193418 210.14758320956693 172.09999999999985 220.30000000000004 L 170.29999999999984 222.40000000000003 C 135.67463025342795 263.2124120030862 108.67759532010365 309.9237183682734 90.59999999999991 360.29999999999995 L 89.69999999999983 362.9000000000001 C 85.19999999999983 375.4000000000001 88.89999999999984 389.4000000000001 98.99999999999983 398.1000000000001 L 165.29999999999984 454.7000000000001 C 162.19999999999985 473.5000000000001 160.69999999999985 492.7000000000001 160.69999999999985 511.8000000000001 C 160.69999999999985 531.0000000000001 162.19999999999985 550.2000000000002 165.29999999999984 568.9000000000001 L 99 625.5 C 88.88456402575224 634.1595247362202 85.18182108528575 648.1742076936848 89.7 660.7 L 90.60000000000001 663.3000000000001 C 108.70000000000002 713.7 135.5 760.2 170.3 801.2 L 172.10000000000002 803.3000000000001 C 180.7086314168099 813.4221310731282 194.66128581434361 817.1984905254521 207.20000000000002 812.8000000000001 L 289.1 783.7 C 318.90000000000003 808.2 352.20000000000005 827.6 388.1 841.1 L 403.90000000000003 926.5 C 406.32522743198047 939.594943933177 416.59573648892695 949.8256448154841 429.70000000000005 952.2 L 432.40000000000003 952.7 C 484.9787298577357 962.150358202737 538.8212701422643 962.150358202737 591.4 952.7 L 594.1000000000001 952.2 C 607.2042635110732 949.8256448154841 617.4747725680197 939.594943933177 619.9000000000001 926.5 L 635.6000000000001 841.5 C 671.7853000589314 827.935684284326 705.4744149743217 808.4723641326061 735.3000000000003 783.8999999999999 L 816.6000000000001 812.8 C 829.1373808075493 817.2343429133649 843.1106025880658 813.4524167904331 851.7000000000002 803.3 L 853.5000000000001 801.1999999999999 C 888.3000000000001 760.0999999999999 915.1000000000001 713.6999999999999 933.2000000000002 663.3 L 934.1000000000001 660.6999999999999 C 938.6000000000001 648.4 934.9000000000001 634.4 924.8000000000002 625.6999999999999 z M 788.3 465.9 C 790.8 481 792.0999999999999 496.5 792.0999999999999 512 C 792.0999999999999 527.5 790.8 543 788.3 558.1 L 781.6999999999999 598.2 L 856.4 662.1 C 845.0756539920914 688.1889385574476 830.781281023224 712.8853200247867 813.8 735.7 L 721 702.8 L 689.6 728.5999999999999 C 665.7 748.1999999999999 639.1 763.5999999999999 610.3000000000001 774.3999999999999 L 572.2 788.6999999999998 L 554.3000000000001 885.6999999999998 C 526.0570206114999 888.9000177730385 497.54297938850016 888.9000177730384 469.3 885.6999999999998 L 451.4000000000001 788.4999999999998 L 413.6000000000001 773.9999999999998 C 385.1000000000001 763.1999999999998 358.6000000000001 747.7999999999997 334.9000000000001 728.2999999999997 L 303.5000000000001 702.3999999999997 L 210.1000000000001 735.5999999999998 C 193.1000000000001 712.6999999999998 178.90000000000012 687.9999999999998 167.5000000000001 661.9999999999998 L 243.0000000000001 597.4999999999998 L 236.5000000000001 557.4999999999998 C 234.1000000000001 542.5999999999998 232.80000000000013 527.1999999999998 232.80000000000013 511.9999999999998 C 232.80000000000013 496.69999999999976 234.0000000000001 481.39999999999975 236.5000000000001 466.4999999999998 L 243.0000000000001 426.4999999999998 L 167.5000000000001 361.9999999999998 C 178.80000000000013 335.89999999999975 193.1000000000001 311.2999999999998 210.1000000000001 288.39999999999975 L 303.5000000000001 321.59999999999974 L 334.9000000000001 295.69999999999976 C 358.6000000000001 276.19999999999976 385.1000000000001 260.7999999999998 413.6000000000001 249.99999999999977 L 451.50000000000006 235.69999999999976 L 469.40000000000003 138.49999999999977 C 497.50000000000006 135.29999999999978 526.2 135.29999999999978 554.4000000000001 138.49999999999977 L 572.3000000000001 235.49999999999977 L 610.4000000000001 249.79999999999978 C 639.1000000000001 260.5999999999998 665.8000000000001 275.9999999999998 689.7 295.5999999999998 L 721.1 321.3999999999998 L 813.9 288.49999999999983 C 830.9 311.3999999999998 845.1 336.09999999999985 856.5 362.0999999999998 L 781.8 426 L 788.3 465.9 z M 512 326 C 414.8 326 336 404.8 336 502 C 336 599.2 414.8 678 512 678 C 609.2 678 688 599.2 688 502 C 688 404.79999999999995 609.2 326 512 326 z M 591.2 581.2 C 570.2192811895965 602.2409830750311 541.7138248862201 614.0462730592576 512 614 C 482.1 614 454 602.3 432.8 581.2 C 411.759016924969 560.2192811895965 399.9537269407424 531.7138248862201 400 502.00000000000006 C 400 472.1 411.7 444 432.8 422.8 C 454 401.6 482.1 390 512 390 C 541.9 390 570 401.6 591.2 422.8 C 612.2409830750311 443.7807188104036 624.0462730592576 472.28617511377996 624 502 C 624 531.9 612.3 560 591.2 581.2 z" stroke-linecap="round" />
</g>
</svg>