<?xml version="1.0" encoding="iso-8859-1"?>
<!-- Generator: Adobe Illustrator 19.0.0, SVG Export Plug-In . SVG Version: 6.00 Build 0)  -->
<svg version="1.1" id="Layer_1" xmlns="http://www.w3.org/2000/svg" xmlns:xlink="http://www.w3.org/1999/xlink" x="0px" y="0px"
	 viewBox="0 0 512 512" style="enable-background:new 0 0 512 512;" xml:space="preserve">
<g>
	<g>
		<g>
			<path d="M249.871,137.419l-77.687,39.83c-4.914,2.52-6.855,8.546-4.336,13.461c1.771,3.454,5.274,5.439,8.906,5.439
				c1.536,0,3.095-0.354,4.555-1.104l77.687-39.83c4.914-2.52,6.855-8.546,4.336-13.461
				C260.814,136.841,254.783,134.899,249.871,137.419z"/>
			<path d="M509.072,226.992L285.008,2.928c-2.059-2.057-4.914-3.112-7.812-2.901c-2.901,0.215-5.565,1.684-7.297,4.023
				l-44.656,60.325c-2.947,3.98-2.536,9.519,0.966,13.021l16.596,16.596l-102.167,52.382c-2.175,1.115-3.866,2.988-4.754,5.266
				L0.684,498.367c-1.442,3.697-0.561,7.897,2.245,10.704C4.84,510.98,7.398,512,10.002,512c1.221,0,2.451-0.224,3.631-0.684
				l346.729-135.2c2.277-0.888,4.15-2.58,5.266-4.754l52.383-102.166l16.594,16.594c1.938,1.938,4.499,2.929,7.074,2.929
				c2.079,0,4.169-0.646,5.947-1.962L507.95,242.1c2.338-1.731,3.807-4.396,4.022-7.297
				C512.188,231.901,511.129,229.049,509.072,226.992z M349.561,358.861L27.594,484.406l125.545-321.967l104.523-53.59
				l145.486,145.497L349.561,358.861z M442.652,265.553L246.446,69.347l32.625-44.072l207.653,207.654L442.652,265.553z"/>
			<path d="M220.884,258.488c-6.266,6.266-8.05,15.296-5.402,23.162l-90.7,90.699c-3.905,3.905-3.905,10.237,0,14.143
				c1.953,1.953,4.512,2.929,7.071,2.929s5.119-0.977,7.071-2.929l90.699-90.699c7.866,2.648,16.896,0.864,23.162-5.402
				c8.809-8.809,8.809-23.094,0-31.903C243.978,249.679,229.692,249.679,220.884,258.488z"/>
			<path d="M90.312,406.82l-21.937,21.937c-3.905,3.905-3.905,10.237,0,14.143c1.953,1.953,4.512,2.929,7.071,2.929
				c2.559,0,5.118-0.976,7.071-2.929l21.937-21.937c3.905-3.905,3.905-10.237,0-14.143
				C100.548,402.915,94.218,402.915,90.312,406.82z"/>
			<path d="M444.005,237.217c1.953,1.953,4.512,2.929,7.071,2.929c2.559,0,5.118-0.977,7.071-2.929
				c3.905-3.905,3.905-10.237,0-14.142l-24.286-24.287c-3.905-3.905-10.235-3.905-14.143,0c-3.905,3.905-3.905,10.237,0,14.142
				L444.005,237.217z"/>
		</g>
	</g>
</g>
<g>
</g>
<g>
</g>
<g>
</g>
<g>
</g>
<g>
</g>
<g>
</g>
<g>
</g>
<g>
</g>
<g>
</g>
<g>
</g>
<g>
</g>
<g>
</g>
<g>
</g>
<g>
</g>
<g>
</g>
</svg>
