<?xml version="1.0" encoding="iso-8859-1"?>
<!-- Generator: Adobe Illustrator 18.1.1, SVG Export Plug-In . SVG Version: 6.00 Build 0)  -->
<svg version="1.1" id="Capa_1" xmlns="http://www.w3.org/2000/svg" xmlns:xlink="http://www.w3.org/1999/xlink" x="0px" y="0px"
	 viewBox="0 0 16.069 16.069" style="enable-background:new 0 0 16.069 16.069;" xml:space="preserve">
<g>
	<g>
		<g>
			<path style="fill:#090509;" d="M11.438,5.433L9.183,5.105L8.174,3.061c-0.101-0.205-0.437-0.205-0.537,0L6.629,5.105L4.373,5.433
				C4.261,5.449,4.168,5.527,4.132,5.636C4.096,5.745,4.125,5.864,4.207,5.943l1.632,1.591L5.454,9.781
				c-0.02,0.114,0.026,0.226,0.118,0.294c0.093,0.066,0.216,0.075,0.316,0.022l2.016-1.061l2.016,1.061
				c0.044,0.022,0.093,0.034,0.141,0.034c0.062,0,0.124-0.02,0.177-0.057c0.09-0.067,0.137-0.18,0.118-0.294L9.971,7.533
				l1.633-1.591c0.082-0.079,0.11-0.198,0.076-0.305C11.644,5.527,11.551,5.449,11.438,5.433z"/>
			<path style="fill:#090509;" d="M16.069,6.66c0-3.381-2.557-6.131-5.701-6.131H5.7C2.556,0.53,0,3.28,0,6.66
				c0,3.349,2.509,6.079,5.61,6.131c0.546,0.216,3.756,1.484,6.445,2.507c0.441,0.167,0.734,0.241,0.951,0.241
				c0.428,0,0.56-0.294,0.59-0.383c0.084-0.25,0.218-0.651-2.168-2.54C14.45,12.032,16.069,9.273,16.069,6.66z M13.005,14.616
				L13.005,14.616v0.462V14.616z M10.217,11.806H8.831l1.109,0.831c0.701,0.525,1.461,1.142,2.01,1.633
				c-2.833-1.082-6.046-2.356-6.08-2.369l-0.082-0.033H5.699c-2.634,0-4.777-2.335-4.777-5.208c0-2.871,2.143-5.208,4.777-5.208
				h4.668c2.635,0,4.778,2.336,4.778,5.208C15.145,9.154,13.417,11.806,10.217,11.806z"/>
		</g>
	</g>
</g>
<g>
</g>
<g>
</g>
<g>
</g>
<g>
</g>
<g>
</g>
<g>
</g>
<g>
</g>
<g>
</g>
<g>
</g>
<g>
</g>
<g>
</g>
<g>
</g>
<g>
</g>
<g>
</g>
<g>
</g>
</svg>
