<?xml version="1.0" encoding="iso-8859-1"?>
<!-- Generator: Adobe Illustrator 17.1.0, SVG Export Plug-In . SVG Version: 6.00 Build 0)  -->
<!DOCTYPE svg PUBLIC "-//W3C//DTD SVG 1.1//EN" "http://www.w3.org/Graphics/SVG/1.1/DTD/svg11.dtd">
<svg version="1.1" id="Capa_1" xmlns="http://www.w3.org/2000/svg" xmlns:xlink="http://www.w3.org/1999/xlink" x="0px" y="0px"
	 viewBox="0 0 400.928 400.928" style="enable-background:new 0 0 400.928 400.928;" xml:space="preserve">
<path d="M215.761,177.009c-3.905-3.905-3.903-10.237,0.001-14.142L325.695,52.939l-8.263,0.924
	c-5.5,0.609-10.425-3.339-11.038-8.827c-0.614-5.489,3.36-10.436,8.848-11.049l36.47-4.071c1.89-0.25,3.937,0.036,5.735,0.902
	c3.614,1.739,5.827,5.454,5.827,9.417v0.001c0,0.005,0,0.01,0,0.015c0,0.23-0.197,0.461-0.223,0.692l-4.265,36.63
	c-0.613,5.489-5.554,9.443-11.049,8.827c-5.488-0.614-9.44-5.56-8.827-11.049l0.924-8.27l-109.932,109.93
	c-1.952,1.952-4.512,2.929-7.071,2.929C220.271,179.938,217.714,178.962,215.761,177.009z M54.92,67.568
	c1.606-42.846,35.386-64.58,67.73-67.495c1.541-0.139,9.388-0.071,11.437,0.151c9.921,1.074,19.927,3.917,29.053,8.596
	c1.747,0.896,6.438,3.62,7.01,4.081c16.755,11.016,29.194,29.077,30.153,54.668c1.388,37.1-12.44,67.066-37.939,82.214
	c-10.717,6.367-22.737,9.551-34.753,9.551c-12.019,0-24.034-3.183-34.754-9.552C67.359,134.633,53.532,104.667,54.92,67.568z
	 M103.072,132.587c15.136,8.992,33.941,8.992,49.077,0c19.006-11.291,29.273-34.717,28.167-64.271
	c-0.482-12.875-4.956-23.06-11.78-30.708c-10.483,21.339-32.535,35.592-59.76,37.592c-5.501,0.402-10.301-3.732-10.706-9.24
	c-0.405-5.508,3.732-10.301,9.24-10.706c17.242-1.267,37.088-9.813,44.735-29.698c-7.606-3.539-16.057-5.434-24.436-5.771
	c-25.426,1.024-51.499,16.388-52.703,48.532C73.8,97.869,84.066,121.295,103.072,132.587z M385.273,203.927v187.446
	c0,5.523-4.522,9.555-10.045,9.555H207.597c-5.523,0-10.323-4.032-10.323-9.555v-82.287c0-5.523,4.8-10.158,10.323-10.158h65.257
	c5.523,0,10.419,4.635,10.419,10.158v71.842h31v-117h-45v8.419c0,5.523-4.477,10-10,10s-10-4.477-10-10v-18.02
	c0-5.523,3.985-10.399,9.508-10.399h65.259c5.523,0,10.232,4.876,10.232,10.399v126.601h31v-167h-45v3.14c0,5.523-4.477,10-10,10
	s-10-4.477-10-10v-13.142c0-5.523,4.172-9.999,9.695-9.999h65.259C380.751,193.928,385.273,198.404,385.273,203.927z
	 M263.273,318.928h-46v62h46V318.928z M210.052,265.23c5.431-1.001,9.022-6.216,8.021-11.647l-1.636-8.942
	c-8.234-44.452-50.166-64.712-88.259-64.712c-0.036,0-0.071,0-0.106,0h-0.13c-0.091,0-0.181,0-0.272,0h-0.002
	c-0.082,0-0.152,0.068-0.229,0.07c-38.066,0.215-79.935,20.262-88.163,64.685L15.821,371.932c-0.538,2.92,0.249,6.02,2.149,8.303
	s4.716,3.694,7.686,3.694h132.408c5.523,0,10-4.477,10-10s-4.477-10-10-10H37.667l21.276-115.494
	c6.173-33.329,39.106-48.304,69.037-48.329c29.865,0.107,62.635,15.029,68.789,48.258l1.634,8.855
	C199.405,262.65,204.619,266.229,210.052,265.23z M138.36,246.92c-5.522,0-9.999,4.479-9.999,10.001
	c0.001,5.522,4.479,9.999,10.001,9.999l19.505-0.002c5.523,0,10-4.479,9.999-10.001c0-5.522-4.479-9.999-10.001-9.999L138.36,246.92
	z"/>
<g>
</g>
<g>
</g>
<g>
</g>
<g>
</g>
<g>
</g>
<g>
</g>
<g>
</g>
<g>
</g>
<g>
</g>
<g>
</g>
<g>
</g>
<g>
</g>
<g>
</g>
<g>
</g>
<g>
</g>
</svg>
