<?xml version="1.0" encoding="utf-8"?>
<!-- Svg Vector Icons : http://www.onlinewebfonts.com/icon -->
<!DOCTYPE svg PUBLIC "-//W3C//DTD SVG 1.1//EN" "http://www.w3.org/Graphics/SVG/1.1/DTD/svg11.dtd">
<svg version="1.1" xmlns="http://www.w3.org/2000/svg" xmlns:xlink="http://www.w3.org/1999/xlink" x="0px" y="0px" viewBox="0 0 1000 1000" enable-background="new 0 0 1000 1000" xml:space="preserve">
<metadata> Svg Vector Icons : http://www.onlinewebfonts.com/icon </metadata>
<g><path d="M238.6,478.2h156.7v36.7H238.6V478.2L238.6,478.2z"/><path d="M238.6,579h156.7v36.8H238.6V579z"/><path d="M238.6,682.9h156.7v36.8H238.6V682.9z"/><path d="M238.6,786.9h156.7v36.8H238.6V786.9z"/><path d="M508.8,278.3h250.5v36.8H508.8V278.3L508.8,278.3z"/><path d="M508.8,399.2h250.5v36.8H508.8V399.2L508.8,399.2z"/><path d="M508.8,520h250.5v36.8H508.8V520L508.8,520z"/><path d="M835.5,894.7v-753H683.1V68.6H432.7v73.1v36.8v118.9H212.6v73h-48v524.3H10v36.8h154.6h268.1h36.8h78.7h162h125.4H990v-36.8H835.5z M469.5,105.3h176.9v36.3H469.5V105.3z M249.3,334h176.9v36.3H249.3V334z M201.3,894.7V407.1h11.3h220.1v487.6H201.3z M584.9,894.7V785.3h88.5v109.4H584.9z M710.1,894.7V748.6h-162v146.1h-78.7V370.3V178.4h213.6h115.6v716.3H710.1z"/></g>
</svg>