<svg xmlns="http://www.w3.org/2000/svg" viewBox="0 0 500 500"><g id="freepik--Floor--inject-1"><path id="freepik--floor--inject-1" d="M77.66,247.63c-95.18,54.95-95.17,144,0,199s249.49,54.95,344.67,0,95.17-144,0-199S172.84,192.68,77.66,247.63Z" style="fill:#fafafa"></path></g><g id="freepik--Plants--inject-1"><g id="freepik--plants--inject-1"><path d="M73.42,369.84q-5.31,3.8-10,7.81a83.47,83.47,0,0,0-7.93-21.58,166.26,166.26,0,0,0-11.91-17.73c-7.24-9.93,3.69-15.12,12.46-10.49s13.34,12.85,15.67,27C72.34,358.6,73.22,365.32,73.42,369.84Z" style="fill:#e0e0e0"></path><path d="M50.39,330.43a.53.53,0,0,0-.74.11.52.52,0,0,0,.12.74c9.58,7,17.62,19.49,19.35,41.75.33-.24.67-.53,1-.77C68.25,350,60,337.5,50.39,330.43Z" style="fill:#fff"></path><path d="M68.54,373.47a126.49,126.49,0,0,0-20.13,19.38,7.32,7.32,0,0,1-2.06-1.94,7.44,7.44,0,0,1-1.24-3.2c-.23-1.64,0-3.41-.72-4.87-1-2-3.42-2.68-5.56-3.24s-4.53-1.37-5.4-3.4a7.28,7.28,0,0,1,.62-5.85c.88-1.65,2.13-3.43,1.81-5.39-.27-1.68-1.64-2.93-2.88-4.08s-2.55-2.51-2.63-4.2a4.72,4.72,0,0,1,2.15-3.88,8.87,8.87,0,0,1,7.72-.9c2.62.8,4.93,2.42,7.44,3.48s5.2.13,7.84.69h.11c2.6.58,5.34,1.61,6.26,4.38s-.24,6.05,1.36,8.46c.89,1.36,2.39,1.94,3.7,2.8a4.58,4.58,0,0,1,1.52,1.59A1.29,1.29,0,0,1,68.54,373.47Z" style="fill:#f0f0f0"></path><path d="M57,371.2a.33.33,0,0,0-.11-.16C50.45,361,39.91,355.81,36.3,354.82a.36.36,0,0,0-.46.27.37.37,0,0,0,.26.47c3.41.94,13.2,5.7,19.5,15a21.11,21.11,0,0,0-16.84.63.4.4,0,0,0-.14.53.43.43,0,0,0,.3.19.33.33,0,0,0,.22-.06,20.36,20.36,0,0,1,17.19-.19,35,35,0,0,1,3.8,8.93c.21-.18.47-.44.68-.62A35.35,35.35,0,0,0,57,371.2Z" style="fill:#fff"></path></g><g id="freepik--plants--inject-1"><path d="M464.58,346.62c-3.71,6.1-10.62,9.71-15.56,20.88a55,55,0,0,0-3.16,9.5,81.2,81.2,0,0,0-1.54,8.22c-1.07-1.05-2.18-2.1-3.32-3.13-1.74-1.61-3.56-3.18-5.46-4.74a73.23,73.23,0,0,1,3.91-23.13c4.12-11.79,12.47-17.82,17.75-18.78C463.12,334.35,469.42,338.66,464.58,346.62Z" style="fill:#e0e0e0"></path><path d="M458.29,340c-8.31,6.21-18.24,22.41-18,41.44l-.76-.67c0-18.94,9.93-35,18.25-41.25a.41.41,0,0,1,.52,0A.31.31,0,0,1,458.29,340Z" style="fill:#fff"></path><path d="M454.39,380.34a42.56,42.56,0,0,0-7,8c-1-1.05-2-2.11-3.06-3.15s-2.18-2.1-3.32-3.13a33.91,33.91,0,0,1,8-14.59,26.25,26.25,0,0,1,5.27-4.47c5.34-3.23,13.13-4.95,14.86,0S461.27,374,454.39,380.34Z" style="fill:#f0f0f0"></path><path d="M463.57,362.67c-5.43,2.17-15.66,12.47-19.6,22.21-.2-.18-.39-.37-.58-.56,4.09-9.88,14.27-20,19.9-22.24a.39.39,0,0,1,.49.15A.33.33,0,0,1,463.57,362.67Z" style="fill:#fff"></path></g></g><g id="freepik--Shadows--inject-1"><ellipse id="freepik--Shadow--inject-1" cx="398.51" cy="396.57" rx="51.31" ry="29.62" style="fill:#f0f0f0"></ellipse><ellipse id="freepik--shadow--inject-1" cx="98.67" cy="396.57" rx="51.31" ry="29.62" style="fill:#f0f0f0"></ellipse></g><g id="freepik--floor-light--inject-1"><ellipse cx="250" cy="423.55" rx="87" ry="50.23" style="fill:#F7CCAC;opacity:0.30000000000000004"></ellipse></g><g id="freepik--character-3--inject-1"><g id="freepik--Chartacter--inject-1"><g id="freepik--Arm--inject-1"><g id="freepik--arm--inject-1"><path d="M424.62,241.78a13.36,13.36,0,0,1,1,3.49c.22,1.8-.73,3.79.11,5.46.72,1.44,4.78,2.47,6.15,3.33a4.47,4.47,0,0,0,1.8.79c.79.07.8-.13,1-.79A14.41,14.41,0,0,0,432.9,243a5.62,5.62,0,0,0-2.2-2.18,3.51,3.51,0,0,0-2.84,0C427.28,241,424.38,241.2,424.62,241.78Z" style="fill:#ebebeb"></path><path d="M424.62,241.78a13.36,13.36,0,0,1,1,3.49c.22,1.8-.73,3.79.11,5.46.72,1.44,4.78,2.47,6.15,3.33a4.47,4.47,0,0,0,1.8.79c.79.07.8-.13,1-.79A14.41,14.41,0,0,0,432.9,243a5.62,5.62,0,0,0-2.2-2.18,3.51,3.51,0,0,0-2.84,0C427.28,241,424.38,241.2,424.62,241.78Z" style="opacity:0.1"></path><path d="M436.94,247.65a104.17,104.17,0,0,0-.38-11.79c-.5-3.75-1.08-18.09-1.52-22.1-.58-5.26-1.65-8.63-2.21-11.91-.63-3.66-1-8.65-2-16.63s-2.63-12.49-6.51-15.32c-3.56-2.6-7.49-2.93-10-3.64-1.1,2.34-.87,10.78-.87,10.78s2.63,18.28,2.85,20.52,3.56,14.57,5.75,23c1.26,4.84,2.64,9.7,2.64,9.7.51,3,.64,4.12-.15,6.41-1.22,3.53-2.34,6.08-2.69,8.18a28.19,28.19,0,0,1-1.29,5.11c-.45,1.2,1.45,1.71,2.94.76s1.42-2.53,2.3-4,2.26-4.32,3.08-3.55,1.58,3.25,2.6,5a8,8,0,0,1,1.23,2.91c.18,1.18-.61,2.75-.1,3.8a2.19,2.19,0,0,0,.49.6,3.66,3.66,0,0,0,1.86.88C436.85,256.66,437,248.73,436.94,247.65Z" style="fill:#ebebeb"></path></g><path d="M418.06,166.56c5.84,1.51,8.83,3.91,10.78,7.88s3.16,14.56,3.91,21.1,2.67,12.82,3.14,19.48.42,12,.42,12a16.64,16.64,0,0,1-6.15,1.75,20.61,20.61,0,0,1-6.46,0s-5-18.37-6.27-23.39-1.88-9.79-3.44-18.65-1.07-18.19-.21-20.87Z" style="fill:#e0e0e0"></path><path d="M418.06,166.56c5.84,1.51,8.83,3.91,10.78,7.88s3.16,14.56,3.91,21.1,2.67,12.82,3.14,19.48.42,12,.42,12a16.64,16.64,0,0,1-6.15,1.75,20.61,20.61,0,0,1-6.46,0s-5-18.37-6.27-23.39-1.88-9.79-3.44-18.65-1.07-18.19-.21-20.87Z" style="opacity:0.1"></path><g id="freepik--Briefcase--inject-1"><path d="M460.79,273.83l.14,42c0,2-1.42,3.22-3.18,4.26l-4.41,2.56a4.22,4.22,0,0,1-3.44.69,9.13,9.13,0,0,1-2.36-1,.15.15,0,0,1-.09,0l-.24-.14L402,296.28a10.64,10.64,0,0,1-5.35-9.21l-.13-38.21a3,3,0,0,1,1.36-2.38l7.52-4.37a3,3,0,0,1,2.73,0l51.27,29.37a2.75,2.75,0,0,1,1,1A2.87,2.87,0,0,1,460.79,273.83Z" style="fill:#e0e0e0"></path><path d="M460.79,273.83l.14,42c0,2-1.42,3.22-3.18,4.26l-4.41,2.56a4.22,4.22,0,0,1-3.44.69,9.13,9.13,0,0,1-2.36-1h0c1.76.82,3.14-.11,3.14-2.19l-.14-39.54a4.18,4.18,0,0,0-.61-2l10.46-6.08A2.87,2.87,0,0,1,460.79,273.83Z" style="opacity:0.2"></path><path d="M450.55,280.61a4.64,4.64,0,0,0-2.09-3.58L400,249.27c-1.92-1.09-3.48-.19-3.47,2l.11,35.78a10.67,10.67,0,0,0,5.36,9.21l45.2,25.89c1.92,1.1,3.48.19,3.47-2Z" style="fill:#e0e0e0"></path><path d="M450.55,280.61a4.64,4.64,0,0,0-2.09-3.58L400,249.27c-1.92-1.09-3.48-.19-3.47,2l.11,35.78a10.67,10.67,0,0,0,5.36,9.21l45.2,25.89c1.92,1.1,3.48.19,3.47-2Z" style="opacity:0.1"></path><path d="M403,243.53l51.36,29.71a4.85,4.85,0,0,1,2.4,4.14l.14,43.19-.78.45L456,277.38a4,4,0,0,0-2-3.46L402.2,244Z" style="fill:#f0f0f0"></path><path d="M421.2,248.83l0,6.5-2.53,1.48,0-8.63c0-.45.3-.63.69-.41Z" style="fill:#e0e0e0"></path><path d="M421.2,248.83l0,6.5-2.53,1.48,0-8.63c0-.45.3-.63.69-.41Z" style="opacity:0.2"></path><path d="M439.08,255.19l0,10.52-2.42,1.42-1.64-.94,0-8.63a1.55,1.55,0,0,0-.7-1.21l-12.4-7.1-2.58-1.48c-.39-.22-.7,0-.69.41l0,8.63-1.65-.94,0-10.52a.71.71,0,0,1,0-.14,1.55,1.55,0,0,1,.69-1.07l1-.6a1.52,1.52,0,0,1,1.39,0L438.38,254A1.52,1.52,0,0,1,439.08,255.19Z" style="fill:#f0f0f0"></path><path d="M436.66,256.6l0,10.53-1.64-.94,0-8.63a1.55,1.55,0,0,0-.7-1.21l-12.4-7.1-2.58-1.48c-.39-.22-.7,0-.69.41l0,8.63-1.65-.94,0-10.52a.71.71,0,0,1,0-.14c.06-.34.35-.46.69-.27L436,255.4A1.55,1.55,0,0,1,436.66,256.6Z" style="opacity:0.2"></path></g><path d="M434.73,256.71a31.61,31.61,0,0,1-3.31,2.14c-1.21.51-2.86.38-3.52-.75a3.25,3.25,0,0,0-.42-.7c-.42-.43-1.13-.32-1.71-.49-.85-.24-1.4-1.09-2.2-1.49-.35-.18-.75-.26-1.11-.44-1.12-.56-1.26-1.61-1.71-2.63a9.54,9.54,0,0,1-1-3.46,2.49,2.49,0,0,1,.2-1.35,2.59,2.59,0,0,1,.83-.85,9.85,9.85,0,0,1,2.46-1.31,2.78,2.78,0,0,1,1.72-.2,1.16,1.16,0,0,1,.87,1.33,4.34,4.34,0,0,1,2.37,0,1.59,1.59,0,0,1,.94.55c.45.63,0,1.52.22,2.26.91-.11,2-.13,2.51.64s-.89,4.46-.44,4.73l3.18,1.94" style="fill:#ebebeb"></path></g><g id="freepik--Bottom--inject-1"><polygon points="410.03 385.82 414.5 383.97 412.87 380.74 409.96 383.55 410.03 385.82" style="fill:#e0e0e0"></polygon><polygon points="410.03 385.82 414.5 383.97 412.87 380.74 409.96 383.55 410.03 385.82" style="opacity:0.1"></polygon><path d="M404.61,377.27s.17,3.1.14,4.08,4.23,4,5.28,4.47l-.07-2.27a17.84,17.84,0,0,1,2.47,3.69c.83,1.39,1.91,4,4.17,5.81,3.34,2.64,8.51,3.92,13.77,4s8.24-1.24,9.71-2.4,1.92-2.51,1.53-3.83S404.61,377.27,404.61,377.27Z" style="fill:#e0e0e0"></path><path d="M418.47,366.35l0-1.82c1,0,1.13,2.59,2.58,4.87a47.13,47.13,0,0,0,7.55,9.33c5.41,4.76,10.21,7.73,12.62,9.87,3.23,2.87-2.27,7.61-10.85,7.27-4.26-.16-11.85-2.18-14-4.65s-3.53-6.38-5.27-8.17-5.41-3.58-6.5-5.78c-.61-1.21-.35-4,0-6.48.28-2.22.29-5.62,1.54-5.36l.11,1.14c.53,1,1.74,2.54,5.18,3.06C413.12,369.89,418.23,370,418.47,366.35Z" style="fill:#e0e0e0"></path><path d="M418.47,366.35l0-1.82c1,0,1.13,2.59,2.58,4.87a47.13,47.13,0,0,0,7.55,9.33c5.41,4.76,10.21,7.73,12.62,9.87,3.23,2.87-2.27,7.61-10.85,7.27-4.26-.16-11.85-2.18-14-4.65s-3.53-6.38-5.27-8.17-5.41-3.58-6.5-5.78c-.61-1.21-.35-4,0-6.48.28-2.22.29-5.62,1.54-5.36l.11,1.14c.53,1,1.74,2.54,5.18,3.06C413.12,369.89,418.23,370,418.47,366.35Z" style="opacity:0.2"></path><path d="M414.15,369.67c1.64-.17,3.39-.74,4.05-2.23l0,0a4.14,4.14,0,0,0,1.17,3.47c1.56,1.77,11.45,14.25,11.45,14.25s-9.18-10.28-10.94-12.22c-2.61-2.86-3.43-3.18-5.76-3.22Z" style="opacity:0.15"></path><path d="M416.35,373a.53.53,0,0,1-.57.47.52.52,0,0,1-.47-.57.52.52,0,1,1,1,.1Z" style="opacity:0.15"></path><path d="M418.93,375.74a.53.53,0,1,1-.48-.57A.53.53,0,0,1,418.93,375.74Z" style="opacity:0.15"></path><path d="M421.5,378.49a.52.52,0,1,1-1-.09.53.53,0,0,1,.57-.48A.52.52,0,0,1,421.5,378.49Z" style="opacity:0.15"></path><path d="M424.08,381.25a.53.53,0,0,1-.57.47.52.52,0,0,1-.47-.57.51.51,0,0,1,.57-.47A.52.52,0,0,1,424.08,381.25Z" style="opacity:0.15"></path><path d="M426.66,384a.53.53,0,0,1-.58.47.52.52,0,0,1,.1-1A.53.53,0,0,1,426.66,384Z" style="opacity:0.15"></path><path d="M415.82,373.15a.25.25,0,0,1-.14-.06.22.22,0,0,1,0-.3,8.56,8.56,0,0,1,5.88-2.44h0a.21.21,0,0,1,.2.22.23.23,0,0,1-.22.2,8.28,8.28,0,0,0-5.57,2.32A.27.27,0,0,1,415.82,373.15Z" style="fill:#263238"></path><path d="M418.39,375.89a.16.16,0,0,1-.13-.06.2.2,0,0,1,0-.3,8.61,8.61,0,0,1,5.88-2.44h0a.21.21,0,0,1,0,.42,8.32,8.32,0,0,0-5.56,2.32A.22.22,0,0,1,418.39,375.89Z" style="fill:#263238"></path><path d="M421,378.65a.2.2,0,0,1-.14-.06.21.21,0,0,1,0-.29,8.6,8.6,0,0,1,5.89-2.45h0a.23.23,0,0,1,.2.22.21.21,0,0,1-.22.2,8.41,8.41,0,0,0-5.57,2.32A.17.17,0,0,1,421,378.65Z" style="fill:#263238"></path><path d="M423.54,381.41a.31.31,0,0,1-.13-.06.21.21,0,0,1,0-.3,8.6,8.6,0,0,1,5.88-2.45h0a.21.21,0,0,1,.19.22.21.21,0,0,1-.22.21,8.27,8.27,0,0,0-5.56,2.32A.27.27,0,0,1,423.54,381.41Z" style="fill:#263238"></path><path d="M426.12,384.16a.16.16,0,0,1-.13-.06.21.21,0,0,1,0-.3,8.67,8.67,0,0,1,5.89-2.44h0a.2.2,0,0,1,.2.22.21.21,0,0,1-.22.2,8.34,8.34,0,0,0-5.57,2.32A.23.23,0,0,1,426.12,384.16Z" style="fill:#263238"></path><path d="M378.1,401.47c-.36,4.14-1.08,6.88-2.63,9.27s-4.65,2.93-7,2.66a10,10,0,0,1-8.43-6.94c-1-2.75-.78-6,0-9.86Z" style="fill:#e0e0e0"></path><path d="M366.19,371c-1.17.06-1.67,5.62-2.49,11.19-.89,6-2.82,9.26-3.53,13.27-1,5.57-.67,8.1,1.2,11.55s10.29,7.09,13.86,2.34c2.91-3.88,3.15-8.27,3-13.87a142.08,142.08,0,0,1,.15-14.26c.34-4.19.75-8.25-.24-8.74-.1.61-.2,1.39-.3,2s-.25,2.74-.9,2.74a8.34,8.34,0,0,1,0-1.58,1.9,1.9,0,0,0-.28-1.37,2.21,2.21,0,0,0-1.27-.61A33.54,33.54,0,0,0,372,373a16.57,16.57,0,0,0-1.73-.12,19.38,19.38,0,0,0-3.05,0,1,1,0,0,0-.64.55,1.94,1.94,0,0,0-.08.64,4.38,4.38,0,0,1-.18,1.14c0,.17-.16.37-.33.32s-.18-.2-.18-.34c0-.68.12-1.17.17-1.95,0-.37.1-.86.11-1.23S366.15,371.31,366.19,371Z" style="fill:#e0e0e0"></path><path d="M366.19,371c-1.17.06-1.67,5.62-2.49,11.19-.89,6-2.82,9.26-3.53,13.27-1,5.57-.67,8.1,1.2,11.55s10.29,7.09,13.86,2.34c2.91-3.88,3.15-8.27,3-13.87a142.08,142.08,0,0,1,.15-14.26c.34-4.19.75-8.25-.24-8.74-.1.61-.2,1.39-.3,2s-.25,2.74-.9,2.74a8.34,8.34,0,0,1,0-1.58,1.9,1.9,0,0,0-.28-1.37,2.21,2.21,0,0,0-1.27-.61A33.54,33.54,0,0,0,372,373a16.57,16.57,0,0,0-1.73-.12,19.38,19.38,0,0,0-3.05,0,1,1,0,0,0-.64.55,1.94,1.94,0,0,0-.08.64,4.38,4.38,0,0,1-.18,1.14c0,.17-.16.37-.33.32s-.18-.2-.18-.34c0-.68.12-1.17.17-1.95,0-.37.1-.86.11-1.23S366.15,371.31,366.19,371Z" style="opacity:0.2"></path><path d="M364.38,396.92a.41.41,0,1,0,.81.1.4.4,0,0,0-.35-.45A.41.41,0,0,0,364.38,396.92Z" style="opacity:0.15"></path><path d="M364.88,393.06a.41.41,0,1,0,.46-.35A.41.41,0,0,0,364.88,393.06Z" style="opacity:0.15"></path><path d="M365.35,389.42a.42.42,0,0,0,.35.46.41.41,0,0,0,.11-.81A.41.41,0,0,0,365.35,389.42Z" style="opacity:0.15"></path><path d="M365.82,385.83a.4.4,0,1,0,.45-.35A.41.41,0,0,0,365.82,385.83Z" style="opacity:0.15"></path><path d="M375,386.67a.41.41,0,1,0,.46-.35A.4.4,0,0,0,375,386.67Z" style="opacity:0.15"></path><path d="M374.51,390.28a.42.42,0,0,0,.35.46.42.42,0,0,0,.46-.35.41.41,0,0,0-.35-.46A.41.41,0,0,0,374.51,390.28Z" style="opacity:0.15"></path><path d="M374,393.92a.41.41,0,1,0,.46-.35A.41.41,0,0,0,374,393.92Z" style="opacity:0.15"></path><path d="M373.54,397.78a.42.42,0,0,0,.35.46.41.41,0,0,0,.11-.81A.41.41,0,0,0,373.54,397.78Z" style="opacity:0.15"></path><path d="M369.78,400l3.51-26.85c-.42-.07-.84-.15-1.26-.2-.26,0-.53,0-.8-.06Z" style="opacity:0.15"></path><path d="M364.76,397.18h.06c2.7-.52,7.27-.12,9,.81a.21.21,0,0,0,.2-.37c-1.88-1-6.48-1.39-9.3-.85a.21.21,0,0,0-.17.24A.22.22,0,0,0,364.76,397.18Z" style="fill:#263238"></path><path d="M365.26,393.32a.22.22,0,0,0,.11,0c2.07-.91,7-.23,9,.83a.2.2,0,0,0,.28-.08.2.2,0,0,0-.09-.28c-2.1-1.11-7.15-1.8-9.34-.84a.21.21,0,0,0,.06.39Z" style="fill:#263238"></path><path d="M365.73,389.68a.22.22,0,0,0,.11,0c2.07-.91,7-.23,9,.83a.21.21,0,1,0,.2-.36c-2.11-1.11-7.16-1.8-9.35-.84a.21.21,0,0,0,.06.39Z" style="fill:#263238"></path><path d="M366.2,386.09a.18.18,0,0,0,.1,0c2.08-.91,7-.22,9,.83a.2.2,0,0,0,.28-.08.21.21,0,0,0-.09-.28c-2.1-1.11-7.15-1.8-9.34-.84a.2.2,0,0,0-.11.27A.21.21,0,0,0,366.2,386.09Z" style="fill:#263238"></path><path d="M370.57,229.87c-2.69,34.08-4.34,80.49-4.34,80.49-.24,2.59-2.8,14.2-2.89,27-.12,15.55.84,38.87.84,38.87s8.34,4.27,16,1.72c0,0,7.63-37.61,11.13-57.26,2.72-15.24,7.23-44.6,7.23-44.6l1.38,34s-.46,11-.17,17.78c.34,7.9,4.65,40.65,4.65,40.65s9.87,7.67,17.8,1.59c0,0,3-55,3.19-64.49.44-18.65.26-55.67-.42-79.76Z" style="fill:#e0e0e0"></path><path d="M370.57,229.87c-2.69,34.08-4.34,80.49-4.34,80.49-.24,2.59-2.8,14.2-2.89,27-.12,15.55.84,38.87.84,38.87s8.34,4.27,16,1.72c0,0,7.63-37.61,11.13-57.26,2.72-15.24,7.23-44.6,7.23-44.6l1.38,34s-.46,11-.17,17.78c.34,7.9,4.65,40.65,4.65,40.65s9.87,7.67,17.8,1.59c0,0,3-55,3.19-64.49.44-18.65.26-55.67-.42-79.76Z" style="opacity:0.1"></path><path d="M386.59,263.48c-4.61,34.47-9.5,69.51-14.32,104A841,841,0,0,0,386.59,263.48Zm32.53,25c-.32-7.65-.78-15.32-1.63-22.94.12,3.83.25,7.66.29,11.49l.19,11.49.14,11.48,0,2.87,0,1.42,0,1.44-.14,5.74c-.16,7.66-.3,20.5-.35,28.15s-.05,15.32.07,23q.69-11.47,1.09-23c.29-7.66.49-20.5.67-28.16S419.42,296.15,419.12,288.5Zm-20.61-12.38,1.38,34,.85-33.91,3.3-16.5c8.73-2.2,11.79-7.83,11.79-7.83-4.74,4.26-14,5.6-14,5.6Z" style="opacity:0.1"></path></g><g id="freepik--Top--inject-1"><g id="freepik--top--inject-1"><g id="freepik--Chest--inject-1"><path d="M372.44,168.48s-5.11,4.55-3.75,16.89c1.18,10.74,1.72,19.75,1.85,23.91.2,6.39-.7,28.18-.7,28.18,9.2,11.87,50.3,10.23,55.68-.07,0,0-.28-14.78-.3-29,0-10.46-.26-20.22-.8-26.5-.77-9-4.64-13.59-6.36-15.28l-14.94-3.73-12.43-.61Z" style="fill:#e0e0e0"></path></g></g><g id="freepik--Head--inject-1"><path d="M387.56,157c-.86-4-5-8-7-11.39s-3-5.85-3-9a6.83,6.83,0,0,1,2.06-5.17c-.47-6.85,6.36-10.5,11-11.83,5.37-1.54,9.79-2,15.41.28a12.3,12.3,0,0,1,7,6.42,14.58,14.58,0,0,1,1,6.57,3.63,3.63,0,0,1-.55,1.24c-.15.17-.11.72-.15,1a4.63,4.63,0,0,1-.61,1.81,6.46,6.46,0,0,1-2.21,2.17c-2.89,1.54-6.14,2.14-9.29,2.93l-3.74.95c-.22.06-1.36.17-1.49.38Z" style="fill:#e0e0e0"></path><path d="M387.56,157c-.86-4-5-8-7-11.39s-3-5.85-3-9a6.83,6.83,0,0,1,2.06-5.17c-.47-6.85,6.36-10.5,11-11.83,5.37-1.54,9.79-2,15.41.28a12.3,12.3,0,0,1,7,6.42,14.58,14.58,0,0,1,1,6.57,3.63,3.63,0,0,1-.55,1.24c-.15.17-.11.72-.15,1a4.63,4.63,0,0,1-.61,1.81,6.46,6.46,0,0,1-2.21,2.17c-2.89,1.54-6.14,2.14-9.29,2.93l-3.74.95c-.22.06-1.36.17-1.49.38Z" style="opacity:0.2"></path><path d="M382.64,152.07a3.87,3.87,0,0,0,4.71-.34l-.54,12.06c2.45,5.36,9,2.94,16.59,12.21,0,0,2.33-4,.24-11.73l.29-4.05a45.2,45.2,0,0,0,4.76-.42c3.35-.57,5-3.57,6-8a28.42,28.42,0,0,0,0-12.11,11.78,11.78,0,0,1-.31-3.29c.17-2.93-.31-3.61-1.17-6-3.58-2.63-11.72-4.23-19,.62,1.06,4.4-.51,8-3.66,9.81.2,1.19.48,4.21-1.49,4.24-1.42,0-1.59-1.76-3.11-3.26s-4.94-1.77-6.15.59A7.66,7.66,0,0,0,382.64,152.07Z" style="fill:#ebebeb"></path><path d="M403.93,160.22c-5-.37-9-.79-11.71-4.28a31.24,31.24,0,0,1-3.25-5.77,24.32,24.32,0,0,0,2.45,7.3c1.35,2.25,4.56,4.21,12.39,4.55Z" style="fill:#e0e0e0"></path><path d="M404.46,137.75c2.17,1,4.54,4,7,7.95l-5.68,2Z" style="fill:#e0e0e0"></path><path d="M406,150.56a.11.11,0,0,0-.06-.13.39.39,0,0,0-.15,0,7.64,7.64,0,0,1-3.42-.8.52.52,0,0,0-.29-.09c-.48,0,.29.55.38.61a4,4,0,0,0,3.43.5A.15.15,0,0,0,406,150.56Z" style="opacity:0.2"></path><path d="M400.47,135.62l-2.93,1.76a1.79,1.79,0,0,1,.61-2.41A1.66,1.66,0,0,1,400.47,135.62Z" style="opacity:0.2"></path><path d="M412.57,136.4,409.4,135a1.65,1.65,0,0,1,2.21-.94A1.81,1.81,0,0,1,412.57,136.4Z" style="opacity:0.2"></path><path d="M401.5,139.94a1.42,1.42,0,0,1-1.15,1.66,1.46,1.46,0,0,1-.46-2.88A1.43,1.43,0,0,1,401.5,139.94Z" style="fill:#e0e0e0"></path><path d="M410.26,138.11a1.46,1.46,0,1,1-1.29,1.55,1.44,1.44,0,0,1,1.29-1.55" style="fill:#e0e0e0"></path><path d="M400.47,135.62l-2.93,1.76a1.79,1.79,0,0,1,.61-2.41A1.66,1.66,0,0,1,400.47,135.62Z" style="opacity:0.2"></path><path d="M412.57,136.4,409.4,135a1.65,1.65,0,0,1,2.21-.94A1.81,1.81,0,0,1,412.57,136.4Z" style="opacity:0.2"></path><path d="M401.5,139.94a1.42,1.42,0,0,1-1.15,1.66,1.46,1.46,0,0,1-.46-2.88A1.43,1.43,0,0,1,401.5,139.94Z" style="opacity:0.2"></path><path d="M410.26,138.11a1.46,1.46,0,1,1-1.29,1.55,1.44,1.44,0,0,1,1.29-1.55" style="opacity:0.2"></path></g><path d="M392.06,165.23c-2.37-2-4.8-3.44-5-5.1v-1.35c-1.09-.15-1,.64-2.07,2.57-.53,1-2.36,3.62-2.36,3.62a21.61,21.61,0,0,0,3.05,5.86,29.3,29.3,0,0,0,7.57,7.07c1.66,1.06,1.56,1.07,2.08-.13a30.47,30.47,0,0,1,3.05-5.45c.47-.45,1.05.14,2.29,1.42A16.91,16.91,0,0,0,403.4,176s-3.62-5.49-4.28-6.1C398.21,169.05,394.42,167.21,392.06,165.23Zm17.75,3.5c-.38-2-2.33-5.07-3.4-6.75a16.68,16.68,0,0,0-1.51-1.78c-.36,0-.68,0-1,0l-.29,4.05a18.66,18.66,0,0,1,.6,4.92c-.11,1.07-.22,5.2-.84,6.81.34-.63.65-1.1,1.16-2.09s1.43-3.64,1.94-3.69c1.06-.13,3.31,5.15,3.56,4.47A17.83,17.83,0,0,0,409.81,168.73Z" style="fill:#e0e0e0"></path><path d="M392.06,165.23c-2.37-2-4.8-3.44-5-5.1v-1.35c-1.09-.15-1,.64-2.07,2.57-.53,1-2.36,3.62-2.36,3.62a21.61,21.61,0,0,0,3.05,5.86,29.3,29.3,0,0,0,7.57,7.07c1.66,1.06,1.56,1.07,2.08-.13a30.47,30.47,0,0,1,3.05-5.45c.47-.45,1.05.14,2.29,1.42A16.91,16.91,0,0,0,403.4,176s-3.62-5.49-4.28-6.1C398.21,169.05,394.42,167.21,392.06,165.23Zm17.75,3.5c-.38-2-2.33-5.07-3.4-6.75a16.68,16.68,0,0,0-1.51-1.78c-.36,0-.68,0-1,0l-.29,4.05a18.66,18.66,0,0,1,.6,4.92c-.11,1.07-.22,5.2-.84,6.81.34-.63.65-1.1,1.16-2.09s1.43-3.64,1.94-3.69c1.06-.13,3.31,5.15,3.56,4.47A17.83,17.83,0,0,0,409.81,168.73Z" style="opacity:0.1"></path><g id="freepik--arm--inject-1"><g id="freepik--arm--inject-1"><path d="M376,262.27c-2.43-2.71-3-6.82-5.6-9.36-.81-.77-1.77-1.36-2.61-2.1a3,3,0,0,1-1.25-2.66c0-.57,1-32.8,1-32.8a144.18,144.18,0,0,0,7.24-20.59C377.39,180,375.93,172.17,372,169c-7.17,2.6-8.33,4.82-10.16,9.81-1.19,3.24-2.64,8.07-4.43,14.82-2.77,10.44-2.65,9.5-4.4,17.06-.75,3.2-1.08,10.28-.68,16.48.54,8.3,1.68,21.63,1.8,22.82.41,3.84-.06,9.41.73,11.6s1.87,4.9,2.69,6.6a4.12,4.12,0,0,0,2.51,2.13,30.49,30.49,0,0,0,3.14,4.59,3,3,0,0,0,3,1A32.7,32.7,0,0,0,369,279c2,2.06,2.23,1.43,2.61,1a2.39,2.39,0,0,0,.26-2.71c-.66-1.09-2.78-3.28-3.34-4.14a18.51,18.51,0,0,1-1.23-3.11s.61.87,1.19,1.73a30.82,30.82,0,0,0,3.19,3.17c1.53,1.52,2.77,2.33,3.36,1.79s.62-1.93-.12-3.12-3.92-4.14-4.31-5.42a26.61,26.61,0,0,1-1.49-5.09c-.12-.61-.88-3.24.69-2.48a2.33,2.33,0,0,1,.82.83A9.44,9.44,0,0,0,373,264a4.15,4.15,0,0,0,3.32.66,1.21,1.21,0,0,0,.48-.24.93.93,0,0,0,.11-1.05,3.35,3.35,0,0,0-.71-.88Z" style="fill:#ebebeb"></path><path d="M366.17,275.88a19.64,19.64,0,0,1-2.89-4.52,24,24,0,0,1-1.76-5.07c.65,1.67,1.3,3.32,2.08,4.92A40.83,40.83,0,0,0,366.17,275.88Z" style="opacity:0.1"></path><path d="M360.06,270.33A9.42,9.42,0,0,1,358.7,268a12.65,12.65,0,0,1-.79-2.56c.43.79.75,1.61,1.12,2.42Z" style="opacity:0.1"></path><path d="M367.29,270.07a24.16,24.16,0,0,1-2.21-4.08,9.77,9.77,0,0,0,2.71,5.55Z" style="opacity:0.1"></path></g><path d="M372.57,168.44c-7.08,2.19-9.09,3.69-10.75,6.34-2,3.23-3,7.09-6.6,19.62s-4.82,18-4.92,20.65a74.79,74.79,0,0,0,.82,14.89c.68,5.36,1,9.24,2,17.41,3.72,1.45,12.59,1.31,14.42-1.12,0-5.54.21-8.9.3-15.16.12-7.79.53-13.85.53-13.85l7.8-23.42S380.63,174.5,372.57,168.44Z" style="fill:#e0e0e0"></path><g style="opacity:0.1"><path d="M372.57,168.44c-7.08,2.19-9.09,3.69-10.75,6.34-2,3.23-3,7.09-6.6,19.62s-4.82,18-4.92,20.65a74.79,74.79,0,0,0,.82,14.89c.68,5.36,1,9.24,2,17.41,3.72,1.45,12.59,1.31,14.42-1.12,0-5.54.21-8.9.3-15.16.12-7.79.53-13.85.53-13.85l7.8-23.42S380.63,174.5,372.57,168.44Z"></path></g></g></g></g></g><g id="freepik--character-2--inject-1"><g id="freepik--Character--inject-1"><g id="freepik--bottom--inject-1"><g id="freepik--bottom--inject-1"><polygon points="235.92 421.03 232.66 419.35 235.92 418.49 235.92 421.03" style="fill:#263238"></polygon><path d="M203.21,426.61s39.08-17,39.52-14.37a3.94,3.94,0,0,1,0,1.58l.1-.14-.79,4.9a11.47,11.47,0,0,1-6.08,2.45V418.5a18.91,18.91,0,0,0-3.45,1.77c-2.52,1.62-4.16,4.49-6.86,7.81-2,2.42-5.41,3.51-10.5,4.15-5.48.7-10.28-.43-11.62-1.93C202.43,429.1,203,427,203.21,426.61Z" style="fill:#263238"></path><path d="M204.29,425.71c.38-.38,1.79-1.9,3.69-3.54,1.66-1.43,3.6-3.25,5.68-4.71a21.56,21.56,0,0,0,2.81-2.26c.69-.72,1.35-1.47,2-2.26a42.51,42.51,0,0,0,4.81-7.91c.63-1.33,1.78-4.24,1.55-9.69-.34-8.26-1-11.24-.91-16.6l18.47,2.83c-.59,3-1.27,9.58-1.61,13-.51,5.12-1.27,5.6.64,10.76.56,1.51,1.42,3,1.47,4.59.08,2.63-2,4.87-4.33,6.12-1.91,1-4.11,1.46-6,2.56a19.08,19.08,0,0,0-4.91,4.7c-1.33,1.66-2.41,3.63-4.26,4.78a16.94,16.94,0,0,1-6.36,2.1,34.28,34.28,0,0,1-8.5.3C204.51,430.06,201.53,428.53,204.29,425.71Z" style="fill:#c8856a"></path><path d="M219.57,417.92a7.25,7.25,0,0,0-6-.65c-2.9,2.23-5.3,4.22-7,5.61-2.05,1.69-3.86,3.23-3.81,5.19.06,3.09,12,4.21,18.68,1.39a8.34,8.34,0,0,0,4.77-4.07S225.29,421.06,219.57,417.92Zm22.83-10.73c-1-2-1.36-3-1.36-3-2.33,1.23-6.45,7-4.7,12.87a8.85,8.85,0,0,0,5.91-3.9A5.61,5.61,0,0,0,242.4,407.19Z" style="fill:#37474f"></path><path d="M271.06,416.88c-1.15,1.73.07,8.43-.33,13.16-.35,4.3-1.44,11-.53,16.06s5.05,10.8,11.12,6.25c3.76-2.81,5.35-6.29,6-12.48.48-4.29-1.06-10.3-2.37-15.63-1.54-6.22-2.1-9.54-2.1-9.54Z" style="fill:#263238"></path><path d="M285,385.5c-.22,8.84-.73,16.5-1,22.93a103.74,103.74,0,0,0,.1,11.33,99.36,99.36,0,0,0,1.7,10.5c.73,3.74,1.29,6.1-.12,10.23a5,5,0,0,1-.45.93c-1.89,3.38-6.53,5.83-8,5.37a2.49,2.49,0,0,1-2.59.82,3.24,3.24,0,0,1-.49-.13,4.37,4.37,0,0,1-2.81-3.44c-.08-.29-.15-.59-.21-.92-.9-5.2,0-8.52.13-10.54.19-2.33,0-5.31,0-9.08.11-7.28-2.36-15.31-3.41-21-.86-4.64-1.9-11.66-3-17Z" style="fill:#c8856a"></path><path d="M286.55,435.12c-3.55-1.69-14-2.23-15.78,2.79-.19,4.78-.32,8,2.58,12.27,3.84,5.64,9.25-.05,11.36-3.71S287,437.71,286.55,435.12Z" style="fill:#37474f"></path><path d="M268.25,245.83c5.26,9,12.34,21.52,13,41.91.88,27.18,1.44,46.65,1.64,49.93s2.69,7.46,3.57,23.67c1,18.06-1.57,45.24-1.57,45.24s-2.18,2.57-8.34,3.29c-5.68.67-8.68-2.34-8.68-2.34s-9.79-43-11.57-53.75c-1.63-9.83-7.49-46.2-7.49-46.2l-2.45,28.52s2.06,9.14.71,23.34-5.85,37.71-5.85,37.71a15.37,15.37,0,0,1-9.76,2.79c-5.53-.22-7.83-2.45-7.83-2.45s-3.35-53.95-3.79-70-1.93-56.25,2.48-80.14Z" style="fill:#37474f"></path><path d="M226.51,270.31c.85,6.53,10.87,13.3,14.76,14.12l4.91,24.47.18,27.2,2.45-28.52-4.45-25.68S231.92,278.78,226.51,270.31Z" style="fill:#263238"></path><path d="M227.88,332.18c-.16-3.64,0-7.35,0-11s.2-7.38.31-11.08L229,287.9q-1.41,11-2.11,22.11c-.46,7.39-.9,14.76-.72,22.24.34,15.83.8,34.63,1.49,43.5C228,367.77,228.06,335.83,227.88,332.18Z" style="fill:#263238"></path><path d="M268.32,353.45c-1.21-8.37-3.85-27.18-5.05-35.58s-2.33-16.81-3.61-25.21c.62,8.47,1.34,16.94,2.29,25.38s3.35,27.32,4.7,35.74c1.7,10.71,3.19,25.47,6.88,42.53C272.64,387.06,269.84,364,268.32,353.45Z" style="fill:#263238"></path></g></g><g id="freepik--top--inject-1"><path d="M235.15,194.66c-5.32.75-6.61.94-11.25,3.52-5,2.8-31.13,32.77-31.13,32.77a12.2,12.2,0,0,0,8.58,1.74c5.31-.73,23.26-10.44,23.26-10.44Z" style="fill:#F7CCAC"></path><path d="M222.34,185.91s.44-.2.59-1.14.08-1.58.23-2.62.63-2.77,1.6-2.93,1.39,2.05,1.38,3.84a8,8,0,0,0,1.13,4.88c1.14,2,2.08,4.65.8,6.88Z" style="fill:#af6152"></path><path d="M216,182.23a32.46,32.46,0,0,0,.78-5.31,15.42,15.42,0,0,1,1.28-3.91c.61-1.37,1.1-3.16,1.6-3.33s1.32.41,1.25,1.5c0,0,.67-.78,1.24-1.6s1-1.86,1.77-2,1.12,1.09.82,1.95-.52,1.34-.52,1.34.75.38,0,1.91a7.85,7.85,0,0,1-1.13,1.72,7.56,7.56,0,0,1-1,2.74,15.13,15.13,0,0,1-1.12,3,8.52,8.52,0,0,1,.83,3.25c0,1.42-.29,1.75,1.3,3.51,1.07,1.18,2.91,2.55,3.9,4.17s1.65,3.31.25,5.33-2.5,3.46-3.83,5.59c-1,1.6-2,3.73-6.21,11.35-3.25,5.92-3.53,6.67-5.09,8.8-2.18,3-4.71,6.86-10.11,8.81s-11.47,1-10.52-3.41c1.13-5.29,2.85-9.41,5.35-12.19a56.3,56.3,0,0,1,6.63-6.26c2.68-2.32,4.79-4.76,8.11-8.09s5.6-6.54,5.63-7.71a26.59,26.59,0,0,0-1.13-6.32C215.59,184.78,215.23,184.85,216,182.23Z" style="fill:#c8856a"></path><path d="M228.07,194.82a10.25,10.25,0,0,1-1.66,2.78c-.61.9-1.22,1.81-1.8,2.73s-1.18,1.83-1.74,2.77-1.19,2.29-1.73,3.24c.63-.89,1.3-2.23,1.9-3.13s1.2-1.83,1.8-2.74l1.78-2.74.89-1.37A3.77,3.77,0,0,0,228.07,194.82Z" style="fill:#af6152"></path><path d="M220.92,171.18a8.93,8.93,0,0,1-.45,1.41c-.19.46-.4.91-.61,1.33l0,.07,0,.09a6.78,6.78,0,0,1,0,.79,5.31,5.31,0,0,1-.09.79,4.7,4.7,0,0,1-.51,1.49l-.06.12,0,.1c.07.17.14.37.2.57a6,6,0,0,1,.13.61c0,.21.06.42.07.63s0,.43,0,.65a3.85,3.85,0,0,0,.25-1.3,3.71,3.71,0,0,0-.05-.67,3.47,3.47,0,0,0-.15-.68l0,.22a4.5,4.5,0,0,0,.66-1.64,6.54,6.54,0,0,0,.08-.88,4,4,0,0,0-.09-.9l0,.17a8.6,8.6,0,0,0,.48-1.46A5.09,5.09,0,0,0,220.92,171.18Z" style="fill:#af6152"></path><path d="M224.23,170.85a5,5,0,0,1-.55.65,5.2,5.2,0,0,1-.64.52l0,0,0,.08a6.39,6.39,0,0,1-.72,1.6,4.48,4.48,0,0,1-1.14,1.27l-.14.11,0,.18a6,6,0,0,1,.08,1,8.59,8.59,0,0,1-.08,1,8.85,8.85,0,0,1-.2,1,9.32,9.32,0,0,1-.3,1,5.15,5.15,0,0,0,.53-.91,6,6,0,0,0,.37-1,5.46,5.46,0,0,0,.18-1.06,4.16,4.16,0,0,0,0-1.11l-.11.28a3.47,3.47,0,0,0,.72-.66,4.73,4.73,0,0,0,.56-.79,7.61,7.61,0,0,0,.39-.88,5.49,5.49,0,0,0,.22-.93l-.07.11a3.62,3.62,0,0,0,.58-.67A2.88,2.88,0,0,0,224.23,170.85Z" style="fill:#af6152"></path><path d="M220.59,182.09a4.08,4.08,0,0,0,.42,1.85,5.81,5.81,0,0,0,1.08,1.56c-.12-.3-.27-.57-.41-.85s-.29-.55-.41-.83A13.24,13.24,0,0,1,220.59,182.09Z" style="fill:#af6152"></path><path d="M225.8,189.41a8,8,0,0,1,.3,3.34,6.3,6.3,0,0,1-.46,1.59,16,16,0,0,1-.82,1.51,4.47,4.47,0,0,0,1.21-1.31,4.64,4.64,0,0,0,.63-1.71A4.59,4.59,0,0,0,225.8,189.41Z" style="fill:#af6152"></path><path d="M254.41,150.59c4.41-3.81,12.71-4,17.09,3.52s4.28,22.18,4.28,31.26v26.41s-.28,4.05-10.68,4.05S252.73,214,252.73,214V154.94Z" style="fill:#263238"></path><path d="M263.48,151.52a12.44,12.44,0,0,1,2.22,3.94,3,3,0,0,1-.28,2.78,2.37,2.37,0,0,1-2.08.7c-2.55-.3-4.87-3-6.22-5-1.15-1.71-2.69-5.09.53-5.63C259.72,147.92,261.89,149.54,263.48,151.52Z" style="fill:#F7CCAC"></path><path id="freepik--chest--inject-1" d="M274.56,255.93c-.57-4.13-3.45-4.74-2.05-14.61.69-4.89,3.15-17.53,3.15-17.53s-8.41-6.48-5.71-25.38l-9-3.64L256,193l-13.17.49-7.68,2c-2.43,2.09-6.87,5.37-10.44,10.42-5.16,7.28-6.08,15.3-.81,21.29.05,1.16-.16,19.18-1.52,23.57-.54,1.74-1.27,4.11-.14,6.45C227.3,265.59,257.38,274.07,274.56,255.93Z" style="fill:#fafafa"></path><path d="M242.81,193.52l-7.66,1.14c-6.78,5.12-14.85,14.36-15.3,21.47A19.23,19.23,0,0,0,223,228.05s.1,14.46-1.55,22.1S218,277.59,218,277.59s1.62,2.07,7.28,3.66c1.74-9.79,4.28-45.9,4-54.52S229.5,204.4,242.81,193.52Z" style="fill:#F7CCAC"></path><path d="M242.81,193.52l-7.66,1.14c-6.78,5.12-14.85,14.36-15.3,21.47A19.23,19.23,0,0,0,223,228.05s.1,14.46-1.55,22.1S218,277.59,218,277.59s1.62,2.07,7.28,3.66c1.74-9.79,4.28-45.9,4-54.52S229.5,204.4,242.81,193.52Z" style="opacity:0.30000000000000004"></path><path d="M228.23,230.75c-.56-2.29-1.17-4.57-1.8-6.84s-1.22-4.55-1.78-6.83a27.44,27.44,0,0,1-.65-3.42c-.17-1.08.6-2,1.36-2.83a31.92,31.92,0,0,1,5.42-4.37l.18-.12,0-.21a11.18,11.18,0,0,1,0-3.74,9.53,9.53,0,0,1,1.3-3.53,11.17,11.17,0,0,1,2.65-2.71,18.07,18.07,0,0,1,3.32-2,16.1,16.1,0,0,0-3.47,1.74,10.57,10.57,0,0,0-2.86,2.68,10,10,0,0,0-1.5,3.66,11.08,11.08,0,0,0-.08,4l.14-.33a30.09,30.09,0,0,0-5.59,4.43,7.77,7.77,0,0,0-1.11,1.47,3,3,0,0,0-.21.44,1.8,1.8,0,0,0-.15.48,3.2,3.2,0,0,0,0,1,28.68,28.68,0,0,0,.7,3.51c.58,2.3,1.3,4.54,2,6.79S227.5,228.5,228.23,230.75Z" style="opacity:0.2"></path><path d="M258.78,194s-2.12,5-6,14-6.44,16.78-6.37,25.1,2.79,51.32,2.79,51.32,11.92,1.8,22.72-2.55L271,265.14,275.08,281s5.17-1.86,7.08-3.58c-2.82-17.32-9.12-25.54-9.43-31.93-.22-4.39,3.51-16.57,4.22-27.54a83.85,83.85,0,0,0-1.31-19.22Z" style="fill:#F7CCAC"></path><path d="M258.78,194s-2.12,5-6,14-6.44,16.78-6.37,25.1,2.79,51.32,2.79,51.32,11.92,1.8,22.72-2.55L271,265.14,275.08,281s5.17-1.86,7.08-3.58c-2.82-17.32-9.12-25.54-9.43-31.93-.22-4.39,3.51-16.57,4.22-27.54a83.85,83.85,0,0,0-1.31-19.22Z" style="opacity:0.30000000000000004"></path><path d="M247.93,235.5a19.4,19.4,0,0,1,3.28-5.74c1.34-1.77,2.8-3.44,4.31-5.08.74-.83,1.5-1.64,2.26-2.45l1.15-1.22c.19-.21.38-.4.58-.64a1.15,1.15,0,0,0,.14-.2,1.77,1.77,0,0,0,.15-.31,2.89,2.89,0,0,0,.06-.56,10.13,10.13,0,0,0-1.17-3.32c-.52-1-1.09-2-1.71-2.92l-.05.55,3.4-3.45,1.7-1.73.42-.44.21-.22a1.63,1.63,0,0,0,.29-.35,1.8,1.8,0,0,0,.09-.76c0-.21,0-.43-.07-.63a37.71,37.71,0,0,0-1.16-4.77c-.48-1.55-1-3.1-1.52-4.63.38,1.58.78,3.15,1.14,4.73a46.67,46.67,0,0,1,.9,4.75,3,3,0,0,1,0,1c.05-.08,0,0-.12.11l-.22.21-.44.42-1.76,1.7L256.29,213l-.25.24.2.31c.57.93,1.12,1.89,1.62,2.87a10,10,0,0,1,1.1,2.94,2,2,0,0,1,0,.26.14.14,0,0,0,0,.07s-.07.09-.1.14-.36.4-.54.6l-1.12,1.24c-.76.82-1.51,1.65-2.24,2.49a66.07,66.07,0,0,0-4.12,5.31,25.59,25.59,0,0,0-1.72,2.89A11.58,11.58,0,0,0,247.93,235.5Z" style="opacity:0.2"></path><g id="freepik--briefcase--inject-1"><path d="M323.35,343.39l-4-46a3.75,3.75,0,0,0-1.7-2.47l-1.33-.82a1.37,1.37,0,0,0-1.16-.24h0l-53.5,17.5,7.88,50.29L323,344.17h0C323.24,344.07,323.38,343.81,323.35,343.39Z" style="fill:#37474f"></path><path d="M269.5,361.65q6.75-2,13.45-4.12l13.39-4.3,13.35-4.44c4.44-1.5,8.87-3.05,13.28-4.62q-6.74,2-13.45,4.12l-13.39,4.29L282.79,357Q276.13,359.28,269.5,361.65Z" style="fill:#263238"></path><path d="M261.74,357.25l6.71,4.14c.87.54,1.52.3,1.46-.52l-4-46a3.77,3.77,0,0,0-1.7-2.46l-1.33-.82c-.87-.54-1.61-.32-1.64.49l-1,42.73A3.16,3.16,0,0,0,261.74,357.25Z" style="fill:#263238"></path><path d="M284.53,353.24a.69.69,0,0,1-.61-.55l-2.12-21.87c0-.28.23-.47.56-.44a.7.7,0,0,1,.64.56l2.12,21.87c0,.27-.22.47-.56.43Z" style="fill:#F7CCAC"></path><path d="M308.83,345.54a.71.71,0,0,1-.61-.56l-2.11-21.87c0-.27.22-.47.55-.43a.71.71,0,0,1,.65.55l2.12,21.87c0,.28-.23.47-.56.44Z" style="fill:#F7CCAC"></path><path d="M272.33,337.26c-2.05.67-4.66-.86-4.83-2.83l-1.63-19.56a3.75,3.75,0,0,0-1.71-2.46l-1.32-.82a1.51,1.51,0,0,0-1.08-.28l53.36-17.45h0a1.37,1.37,0,0,1,1.16.24l1.34.82a3.83,3.83,0,0,1,1.7,2.47l1.61,19.38a5.76,5.76,0,0,1-4.29,6Z" style="fill:#455a64"></path><polygon points="291.6 329.34 297.94 327.27 298.26 330.21 291.9 332.29 291.6 329.34" style="fill:#F7CCAC"></polygon></g><path d="M295.92,300.11c-1-4.12-2.42-10.68-3.72-11l1.06-1.6s1.34,0,2.54,3.71c1,3,2.28,8.16,2.28,8.16Z" style="fill:#37474f"></path><path d="M282.26,298.09c-1.73-.53-3.11-2.86-3.29-3.62a6.41,6.41,0,0,1,1.23-4c.77-.65,4.12-3.36,5.05-3s1.31,5.66.21,7.49A10.49,10.49,0,0,1,282.26,298.09Z" style="fill:#af6152"></path><path d="M294.88,293a52.69,52.69,0,0,0,1.88-7.22,47.88,47.88,0,0,0,.45-6.56c.22-5.42,1.5-21.49,1.05-29.94L283,255.51s3.43,18.4,3.5,21.35c0,1.75-2.09,3.59-3.06,5a18.69,18.69,0,0,0-2.05,4.39,28.61,28.61,0,0,1-2.24,4.75,1.69,1.69,0,0,0-.26.6,1.08,1.08,0,0,0,1,1.1,2.34,2.34,0,0,0,1.53-.48,10.73,10.73,0,0,0,2.69-2.89c.11-.16.26-.33.46-.31s.29.18.35.35A5.66,5.66,0,0,1,285,291a8.9,8.9,0,0,1-1.52,3.7c-.68,1.11-1.88,2.24-3.38,2,.16.18.65.77.84.94a6.75,6.75,0,0,0,1.1.83,3.26,3.26,0,0,0,2.46.18c1.1-.25,2-1.16,3.13-1.22.31,0,.61,0,.92.05a2.74,2.74,0,0,0,1.91-.52c.46-.38.74-1,1.28-1.22a4.34,4.34,0,0,1,.89-.25A3.46,3.46,0,0,0,294.88,293Z" style="fill:#c8856a"></path><path d="M281.85,290.59c-1.35,1.38-2.15,4.34-2,6.79s.94,7.67.94,7.67l2.12-.69s-.25-1.86-.74-5.75c-.45-3.59.36-5.44.95-6.23A3.79,3.79,0,0,1,285,291s.46-1.78-.29-2C283.85,289,283.21,289.21,281.85,290.59Z" style="fill:#263238"></path><path d="M281,248.79s-9.79-19.94-11.78-24.32-3.14-18.83,4.06-26.35c8.55,2,8.84,3.26,12.77,12.92s9.69,24.73,11.41,29.82c1.3,3.84,1.25,7.23,1.07,13.43-.15,5.42-.48,9.66-.48,9.66s-1.61,1.47-7.07,1.5c-5.05,0-6.55-1.87-6.55-1.87Z" style="fill:#F7CCAC"></path><path d="M258.79,185.5c0-3,4.15-8.07,6.45-13.3s2.6-13.5-2.2-16.51c-.57-8.18-17-12.53-27.58-6.51s-9.8,17.77-3.1,21S258.79,185.5,258.79,185.5Z" style="fill:#263238"></path><g id="freepik--head--inject-1"><g id="freepik--head--inject-1"><g id="freepik--head--inject-1"><path d="M260.89,181.4a5.42,5.42,0,0,0,5-1.89c2.73-2.94,2.42-5.95,1.19-8-1-1.67-3.55-2.76-5.35-1.66s-2,2.15-2.73,3.49-2.58.26-1.89-5.16c-3.69-1.79-1.64-6.87-3.62-9.43-2.51-3.26-7.29-1.7-9.9-.51a2.12,2.12,0,0,1-2.29-.34,5.51,5.51,0,0,0-6.24-.89c-2.27,1.18-3.37,2.84-3,8.35a14.4,14.4,0,0,1-.24,3.76,36.82,36.82,0,0,0-.68,4c-.33,5.18,1.21,11.31,3.89,13.91a10.79,10.79,0,0,0,7.82,2.73v3.77S234,203,243.92,203c11.36,0,14.86-9,14.86-9V179.82S259,181,260.89,181.4Z" style="fill:#c8856a"></path></g><path d="M247.12,164.3l3.56,1.6a2.06,2.06,0,0,0-1-2.65A1.89,1.89,0,0,0,247.12,164.3Z" style="fill:#263238"></path><path d="M233.68,165.64l3.67-1.4a1.88,1.88,0,0,0-2.47-1.18A2.07,2.07,0,0,0,233.68,165.64Z" style="fill:#263238"></path><path d="M246.78,178.48l-5.45,1.19a2.68,2.68,0,0,0,3.22,2.19A2.93,2.93,0,0,0,246.78,178.48Z" style="fill:#af6152"></path><path d="M243.49,181.88a2.87,2.87,0,0,1,2.72-2.32,3.32,3.32,0,0,1,.55,0,2.92,2.92,0,0,1-2.21,2.27A2.71,2.71,0,0,1,243.49,181.88Z" style="fill:#f28f8f"></path><path d="M234.78,168.35a1.59,1.59,0,1,0,2.1-.81A1.6,1.6,0,0,0,234.78,168.35Z" style="fill:#263238"></path><path d="M246.55,168.35a1.59,1.59,0,1,0,2.1-.81A1.59,1.59,0,0,0,246.55,168.35Z" style="fill:#263238"></path><path d="M243.37,167l-1.28,10.34-5.61-1.92C238.07,171.45,240.63,167.51,243.37,167Z" style="fill:#af6152"></path></g><path d="M242.81,189.75c6-.13,11.43-2.91,13.37-6-.73,4.16-5.5,6.24-8.34,6.9a22.83,22.83,0,0,1-5,.76Z" style="fill:#af6152"></path></g></g></g></g><g id="freepik--character-1--inject-1"><g id="freepik--character--inject-1"><g id="freepik--arm--inject-1"><g id="freepik--arm--inject-1"><path d="M72.12,237.45c-.51,1,1.5,2.79,1.28,3.89-.31,1.55-1.5,5.65-4.86,4.73a.63.63,0,0,0-.38,0c-.13,0-.2.17-.28.29a2.19,2.19,0,0,1-1.84,1c-4-.11-.29-7.56.88-9.12a5.22,5.22,0,0,1,2.17-1.84,3.23,3.23,0,0,1,2.6.16C72.2,236.75,72.38,236.94,72.12,237.45Z" style="fill:#f0f0f0"></path><path d="M72.12,237.45c-.51,1,1.5,2.79,1.28,3.89-.31,1.55-1.5,5.65-4.86,4.73a.63.63,0,0,0-.38,0c-.13,0-.2.17-.28.29a2.19,2.19,0,0,1-1.84,1c-4-.11-.29-7.56.88-9.12a5.22,5.22,0,0,1,2.17-1.84,3.23,3.23,0,0,1,2.6.16C72.2,236.75,72.38,236.94,72.12,237.45Z" style="opacity:0.1"></path><path d="M62.9,242.12a93.43,93.43,0,0,1,1.18-10.76c.71-3.4,2.26-16.49,2.94-20.12.9-4.78,2.12-7.79,2.86-10.75.84-3.32,1.54-7.85,3-15.09s4.15-11.25,7.91-13.57c3.44-2.12,6.2-2.15,8.5-2.62.84,2.22,0,9.93,0,9.93s-3.69,16.55-4,18.58S81,210.81,78.42,218.37c-1.5,4.35-3.1,8.7-3.1,8.7-.68,2.7-.88,3.72-.32,5.87.87,3.33,1.72,5.74,1.89,7.68a27.05,27.05,0,0,0,.82,4.77c.33,1.13-1.45,1.46-2.74.5s-1.12-2.43-1.83-3.8-1.76-4.12-2.57-3.47-1.67,2.87-2.73,4.37a7.81,7.81,0,0,0-1.45,3.34c-.19,1-.75,2.15-2.11,1.83C62.1,247.64,62.76,243.68,62.9,242.12Z" style="fill:#f0f0f0"></path></g><path d="M86.43,169.21a16.47,16.47,0,0,0-11.27,7.94c-2.06,3.49-3.61,11.63-4.75,17.57s-3.36,11.55-4.26,17.61-1.23,11-1.23,11a15.19,15.19,0,0,0,5.52,2,18.65,18.65,0,0,0,5.91.46s5.85-16.46,7.38-21S86.14,196,88.2,188s3.17-17.15,2.57-19.66Z" style="fill:#e0e0e0"></path><path d="M86.43,169.21a16.47,16.47,0,0,0-11.27,7.94c-2.06,3.49-3.61,11.63-4.75,17.57s-3.36,11.55-4.26,17.61-1.23,11-1.23,11a15.19,15.19,0,0,0,5.52,2,18.65,18.65,0,0,0,5.91.46s5.85-16.46,7.38-21S86.14,196,88.2,188s3.17-17.15,2.57-19.66Z" style="opacity:0.1"></path><g id="freepik--briefcase--inject-1"><path d="M95.67,292.37l.85-41.24a3.38,3.38,0,0,0-1.27-2.36l-1.1-.86a1.27,1.27,0,0,0-1-.33h0L43.94,258l2.14,45.43L95.26,293h0C95.5,293,95.66,292.74,95.67,292.37Z" style="fill:#e0e0e0"></path><g style="opacity:0.1"><path d="M95.67,292.37l.85-41.24a3.38,3.38,0,0,0-1.27-2.36l-1.1-.86a1.27,1.27,0,0,0-1-.33h0L43.94,258l2.14,45.43L95.26,293h0C95.5,293,95.66,292.74,95.67,292.37Z"></path></g><path d="M39.61,298.72l5.56,4.33c.72.56,1.32.42,1.34-.32l.86-41.24a3.38,3.38,0,0,0-1.27-2.36l-1.1-.86c-.73-.56-1.4-.43-1.51.28l-5,37.86A2.82,2.82,0,0,0,39.61,298.72Z" style="fill:#ebebeb"></path><path d="M60.24,297.36a.62.62,0,0,1-.49-.55L60,277.19c0-.25.25-.4.54-.34a.63.63,0,0,1,.52.56L60.81,297c0,.24-.25.39-.54.33Z" style="fill:#f0f0f0"></path><path d="M82.57,292.87a.64.64,0,0,1-.49-.55l.23-19.63c0-.25.25-.4.54-.34a.66.66,0,0,1,.52.56l-.23,19.63c0,.25-.25.39-.54.33Z" style="fill:#f0f0f0"></path><path d="M50.94,282c-1.88.4-4-1.22-4-3l.44-17.53a3.35,3.35,0,0,0-1.28-2.35L45,258.28a1.34,1.34,0,0,0-.93-.35l49.07-10.35h0a1.22,1.22,0,0,1,1,.32l1.1.86a3.38,3.38,0,0,1,1.27,2.36l-.43,17.36a5.15,5.15,0,0,1-4.39,4.93Z" style="fill:#e0e0e0"></path><polygon points="68.82 276.82 74.66 275.59 74.66 278.24 68.81 279.47 68.82 276.82" style="fill:#f0f0f0"></polygon></g><path d="M64.83,243.45A6.69,6.69,0,0,0,63,245a8.31,8.31,0,0,0-1.35,5.51,23.65,23.65,0,0,1,0,3.66l2-.43c0-1.76-.49-3.59.14-5.28A6.5,6.5,0,0,1,67.12,245c2.76-1.34,7.16-1.17,8.69,1.89.61,1.23.39,2.91.56,4.26l2.09-.45s-.41-2.8-.44-3c-.24-1.52-.25-3.16-1.43-4.28-2.86-2.7-8.45-1.94-11.54-.1Z" style="fill:#e0e0e0"></path><path d="M64.83,243.45A6.69,6.69,0,0,0,63,245a8.31,8.31,0,0,0-1.35,5.51,23.65,23.65,0,0,1,0,3.66l2-.43c0-1.76-.49-3.59.14-5.28A6.5,6.5,0,0,1,67.12,245c2.76-1.34,7.16-1.17,8.69,1.89.61,1.23.39,2.91.56,4.26l2.09-.45s-.41-2.8-.44-3c-.24-1.52-.25-3.16-1.43-4.28-2.86-2.7-8.45-1.94-11.54-.1Z" style="opacity:0.1"></path><path d="M68,249a12.77,12.77,0,0,0,4-.82,5.34,5.34,0,0,0,2.79-1.73,3,3,0,0,0-.56-3.95,1.7,1.7,0,0,0-1.92-.26.77.77,0,0,1-.39.18.69.69,0,0,1-.32-.16,1.68,1.68,0,0,0-1.5-.07,5,5,0,0,0-1.29.85c0-.33-.53-.32-.84-.21a5.86,5.86,0,0,0-3.42,3.63c-.28.88-.33,1.37.51,1.84A6.1,6.1,0,0,0,68,249Z" style="fill:#ebebeb"></path></g><g id="freepik--bottom--inject-1"><path d="M121.54,400.1c.06,3.75.48,6.36,1.76,8.62s3.85,3.06,6.51,2.53a9.93,9.93,0,0,0,7-5.29c1.21-2.54,1.44-5.39,1-8.89Z" style="fill:#e0e0e0"></path><path d="M121.54,400.1c.06,3.75.48,6.36,1.76,8.62s3.85,3.06,6.51,2.53a9.93,9.93,0,0,0,7-5.29c1.21-2.54,1.44-5.39,1-8.89Z" style="opacity:0.2"></path><path d="M134.3,376.24c.4,2.53.55,4.25,1.08,7.71.83,5.38,2,7.73,2.41,12.18.46,5.08-.26,7.47-2.47,10.28s-8.61,5.68-11.61,1.16c-2.46-3.68-2.39-7.64-1.93-12.67a108.86,108.86,0,0,0,.21-12.8V382c0-1.36,0-4-.09-5.39-.19-3,1.86-3.14,2.67-3.49a11.38,11.38,0,0,1,3.61-1,10.26,10.26,0,0,1,3.76.49C133.32,373,133.93,373.82,134.3,376.24Z" style="fill:#e0e0e0"></path><path d="M134.3,376.24c.4,2.53.55,4.25,1.08,7.71.83,5.38,2,7.73,2.41,12.18.46,5.08-.26,7.47-2.47,10.28s-8.61,5.68-11.61,1.16c-2.46-3.68-2.39-7.64-1.93-12.67a108.86,108.86,0,0,0,.21-12.8V382c0-1.36,0-4-.09-5.39-.19-3,1.86-3.14,2.67-3.49a11.38,11.38,0,0,1,3.61-1,10.26,10.26,0,0,1,3.76.49C133.32,373,133.93,373.82,134.3,376.24Z" style="opacity:0.1"></path><path d="M59.22,387.34a3.45,3.45,0,0,0,1,3.5c1.57,1.11,6,2.77,11.68,1.6s8.6-3.11,10.73-5.14,5.13-4.87,7.66-5.63c2.36-.7,5.42-2.16,6.13-2.93s.35-3.95.35-3.95Z" style="fill:#e0e0e0"></path><path d="M59.22,387.34a3.45,3.45,0,0,0,1,3.5c1.57,1.11,6,2.77,11.68,1.6s8.6-3.11,10.73-5.14,5.13-4.87,7.66-5.63c2.36-.7,5.42-2.16,6.13-2.93s.35-3.95.35-3.95Z" style="opacity:0.2"></path><path d="M93.53,364.69a1.56,1.56,0,0,1,.77.14c.65.32.83,1.14,1,1.85a6.83,6.83,0,0,0,.37,1.86,15.1,15.1,0,0,1,1.1,7.36c-.32,1.63-4.54,3.3-7,4.41a32.24,32.24,0,0,0-7.7,5.57,24.07,24.07,0,0,1-11.68,5.28c-5.67.54-9.46-.65-10.75-2.53-1.59-2.32-.61-3.82,5.68-7.25,1.19-.65,5.33-3.47,6.73-4.48a34.7,34.7,0,0,0,4.19-3.54,27.61,27.61,0,0,0,1.84-2.06,26.65,26.65,0,0,1,3-2.91,17.12,17.12,0,0,1,2.34-1.91A10.77,10.77,0,0,1,88,365c1.65-.2,3.23.06,4.87-.19C93.07,364.74,93.31,364.7,93.53,364.69Z" style="fill:#e0e0e0"></path><path d="M93.53,364.69a1.56,1.56,0,0,1,.77.14c.65.32.83,1.14,1,1.85a6.83,6.83,0,0,0,.37,1.86,15.1,15.1,0,0,1,1.1,7.36c-.32,1.63-4.54,3.3-7,4.41a32.24,32.24,0,0,0-7.7,5.57,24.07,24.07,0,0,1-11.68,5.28c-5.67.54-9.46-.65-10.75-2.53-1.59-2.32-.61-3.82,5.68-7.25,1.19-.65,5.33-3.47,6.73-4.48a34.7,34.7,0,0,0,4.19-3.54,27.61,27.61,0,0,0,1.84-2.06,26.65,26.65,0,0,1,3-2.91,17.12,17.12,0,0,1,2.34-1.91A10.77,10.77,0,0,1,88,365c1.65-.2,3.23.06,4.87-.19C93.07,364.74,93.31,364.7,93.53,364.69Z" style="opacity:0.1"></path><path d="M80.16,362c.28,4.73-.59,6.48-2.18,8.46-3.34,4.13-7.73,7.18-11.9,10.49-1.06,2.65,5,3.85,10,.84a121.06,121.06,0,0,0,10.29-6.84c3.54-3,7.42-5.18,8-9.27.12-.94,2-13.54,3.65-25.82l-19.61,1C79.15,348.91,79.85,356.54,80.16,362Z" style="fill:#f0f0f0"></path><path d="M133.75,374.88c-.31-9.88,1.19-20.58,1.35-35.11l-18.72-1.59c.13.78.26,1.58.4,2.34,2,14.09,5.11,27.85,5.46,34.87.13,1.68,1.37,18.16,2,21.95s9.13,4.27,10-2.17C134.76,390.89,133.81,376.94,133.75,374.88Z" style="fill:#f0f0f0"></path><path d="M121,215.33c5.22,8.38,9.12,15.24,10.66,40.71s1.38,40.95,1.61,44,2.51,6.85,3.09,22.08c.6,15.68-1,35.29-1,35.29s-1.45,2.81-7.43,3.58c-5.52.7-8.34-1.19-8.34-1.19s-6.71-31.63-9.18-42c-2.17-9.11-7.64-44.25-7.64-44.25L100.17,298s2.94,9.31,1.15,22.69-3.87,25.53-3.87,25.53a37.74,37.74,0,0,1-10.18,1.67,25.74,25.74,0,0,1-9-1.49s-3.88-38.87-4.5-53.92-1.81-56.86,3-75.08Z" style="fill:#e0e0e0"></path><path d="M132.37,307.77l-.66-2.48c-1.81-7-1.84-20.4-2.29-32.07-.14-3.52-.28-7.16-.47-11-.75-15.18-2.66-32.13-11.07-42.77l-.62.45c5.65,7.16,8.32,17.27,9.68,27.75-7.94-.69-10-8.14-12.76-18.41-.38-1.41-.77-2.86-1.19-4.35l-.76.2c.42,1.49.82,2.94,1.2,4.34,2.77,10.25,5,18.36,13.61,19,.57,4.62.9,9.3,1.13,13.82.19,3.87.33,7.51.47,11,.45,11.71.48,25.17,2.31,32.23l.66,2.48c2.42,9,2.12,27.61,1.57,51.44a8,8,0,0,0,.8-.51C134.47,335.27,134.78,316.76,132.37,307.77Zm-52.2-68.86c1.31,5,9.77,8.84,13.57,9.56l1.16,5.06c-.08,2.71-.16,5.57-.25,8.51-.49,16.24-.84,33,0,36.77,1.66,7.33,1.22,14.37.26,23.95-.85,8.65-2.34,19.36-3.27,24.84l.79-.1c.93-5.43,2.16-15,3.37-24.7s1.54-16.49-.39-24.18c-.92-3.66-.46-21.13,0-36.56.06-1.87.11-3.7.17-5.49l4.08,17.81.49,23.64,2.63-24.46-6.12-28.75S86.21,244.52,80.17,238.91Z" style="opacity:0.1"></path></g><g id="freepik--top--inject-1"><path d="M107.34,165.15l13,4c2.24.77,10.69,5.93,7.74,18.65-1,4.21-2.31,10.11-3.51,16-.92,4.51,2.45,13.19,5.18,27,0,0-11.18,8.88-33.38,6.37C79.46,235.34,77.63,229,77.63,229c.47-15.77,1.86-21.86,1.83-27.85a14.43,14.43,0,0,1-2.58-8.38c-.11-5.62,1.37-8.65,6.41-15,4.79-6.07,7.74-9.23,7.74-9.23Z" style="fill:#fafafa"></path><path d="M96.66,166.73c-.6.23-5.89,1.6-5.89,1.6-6.84,5.78-11.27,12.54-12.93,16.38-2,4.61-2.27,9.69-2.39,16.93-.1,6.29-1.79,24.71-1.79,33.88.68,2.43,3.54,3.92,3.54,3.92,1.51-20,2.17-27.14,3.88-43.9,2.2-14.75,14-25.86,16.44-27.56Z" style="fill:#ebebeb"></path><path d="M113.5,165.89l.08,1.27c-3.25,10.72-3.27,24.85-3.35,34.88a352.42,352.42,0,0,0,2.91,43.41s13.21,2.35,19.17-5.69c0,0-3.48-12.85-5.48-25.06-1.18-7.24,3.63-24.94,2.39-35.41-.53-4.38-.83-7.57-4.2-8.75C122.34,169.6,113.5,165.89,113.5,165.89Z" style="fill:#ebebeb"></path><path d="M87.37,172.84l-.12.1,0,.16.41,1.68c-1.84,1.54-3.67,3.09-5.47,4.68l-.11.09v.13c-.31,2.14-.6,4.29-.81,6.45-.11,1.08-.22,2.16-.31,3.24s-.16,2.16-.17,3.25l1-6.42c.35-2.09.66-4.19,1-6.29q2.76-2.35,5.44-4.79l.15-.14,0-.17-.52-1.7c.69-.64,1.39-1.26,2.07-1.91s1.45-1.37,2.16-2.07c-.8.6-1.58,1.22-2.36,1.83S88.14,172.22,87.37,172.84ZM117.56,174l0-.15c-.38-1-.75-2.09-1.14-3.13s-.77-2.09-1.18-3.13c.29,1.08.61,2.14.92,3.21s.6,2,.91,3l-2.7,2.11-.17.14.08.22,2.2,5.83c-.67,1.39-1.26,2.8-1.86,4.22s-1.23,2.93-1.78,4.42-1.06,3-1.53,4.52a28.39,28.39,0,0,0-1,4.65,34.45,34.45,0,0,1,1.39-4.54c.53-1.48,1.11-3,1.72-4.41s1.21-2.93,1.85-4.37,1.31-2.89,2-4.33l.07-.14-.06-.14-2.26-5.73,2.55-2.18Z" style="fill:#e0e0e0"></path><g id="freepik--head--inject-1"><g id="freepik--Hair--inject-1"><path d="M97.58,152.58a15.73,15.73,0,0,0-2.43-4.25,23.17,23.17,0,0,0-3.94-2.68L87,142.79c-5.1-3-6.82-10.28-5.09-13.64,4-7.76,13.91-10.09,19.23-10.14,10.09-.09,14.88,2.74,15.68,8,3.09.15,4.82,1.68,6.35,3.93,1.26,1.85,1.59,3.35,1.5,9a11.86,11.86,0,0,0,.64,4c.69,1.77,2.19,3.57,2.77,5.38a8.63,8.63,0,0,1,.26,5.75,7.6,7.6,0,0,1-4.1,4.52,5.54,5.54,0,0,0-.21-4.59c-.28,2-.78,4.37-2.62,5.28s-4.17-.18-6.22.27c-1.34.29-2.47,1.22-3.81,1.53-.63.15-2.32.31-2.73-.37s.31-1.81-.1-2.62c-.52-1.05-3-1.55-4.07-2C102.39,156.07,98.66,154.8,97.58,152.58Z" style="fill:#e0e0e0"></path><path d="M97.58,152.58a15.73,15.73,0,0,0-2.43-4.25,23.17,23.17,0,0,0-3.94-2.68L87,142.79c-5.1-3-6.82-10.28-5.09-13.64,4-7.76,13.91-10.09,19.23-10.14,10.09-.09,14.88,2.74,15.68,8,3.09.15,4.82,1.68,6.35,3.93,1.26,1.85,1.59,3.35,1.5,9a11.86,11.86,0,0,0,.64,4c.69,1.77,2.19,3.57,2.77,5.38a8.63,8.63,0,0,1,.26,5.75,7.6,7.6,0,0,1-4.1,4.52,5.54,5.54,0,0,0-.21-4.59c-.28,2-.78,4.37-2.62,5.28s-4.17-.18-6.22.27c-1.34.29-2.47,1.22-3.81,1.53-.63.15-2.32.31-2.73-.37s.31-1.81-.1-2.62c-.52-1.05-3-1.55-4.07-2C102.39,156.07,98.66,154.8,97.58,152.58Z" style="opacity:0.1"></path><path d="M98.25,131.6a8.39,8.39,0,0,0-12.35-6.32,9.72,9.72,0,0,0-5.19,8.06,12.3,12.3,0,0,0,.51,4.47c.53,1.77,1.82,2.89.71,4.81-.61,1.06-1.56,1.86-2.23,2.88a6.66,6.66,0,0,0,1.8,8.89,4.89,4.89,0,0,1,1.7-5.62c-1,2-.45,4.73-.2,6.24.92,5.58,5.19,8.54,9.69,9.52,3.79.82,11-.55,11.53-3.7.24-1.43-2.4-4.15-2.57-5.59-.2-1.72-.41-3.44-.64-5.15-.74-5.61-1.58-11.21-2.48-16.8C98.44,132.73,98.35,132.16,98.25,131.6Z" style="fill:#e0e0e0"></path><path d="M98.25,131.6a8.39,8.39,0,0,0-12.35-6.32,9.72,9.72,0,0,0-5.19,8.06,12.3,12.3,0,0,0,.51,4.47c.53,1.77,1.82,2.89.71,4.81-.61,1.06-1.56,1.86-2.23,2.88a6.66,6.66,0,0,0,1.8,8.89,4.89,4.89,0,0,1,1.7-5.62c-1,2-.45,4.73-.2,6.24.92,5.58,5.19,8.54,9.69,9.52,3.79.82,11-.55,11.53-3.7.24-1.43-2.4-4.15-2.57-5.59-.2-1.72-.41-3.44-.64-5.15-.74-5.61-1.58-11.21-2.48-16.8C98.44,132.73,98.35,132.16,98.25,131.6Z" style="opacity:0.2"></path></g><path d="M112.55,164.69c0-1.66.27-10,.27-10,.07.62,3.08,2.32,5.79-.87S121,146,119,144.2c-3.09-2.82-7.47-.26-7.94,3.79-2.31,1.28-3.17-1.6-1.68-4.92-.23-2.67-3-3-2.89-8.83-.35-2.9-4.8-4.85-8.2-2.64a6.31,6.31,0,0,0-10.2,1.72c-1.48,3.4-2,3.51-1.51,7.72.17,1.5-1,3.34-1.12,5.33-.4,8.82,1.81,13.82,4.62,15.32a13.57,13.57,0,0,0,6.9,1L97,165h0c-.07,1.39.08,2.64-1.27,3.09-.57.9-2.86,8.84-2.18,19.74C102,178.54,112.38,168.38,113,167,112.64,166.48,112.56,166.35,112.55,164.69Z" style="fill:#f0f0f0"></path><path d="M96.07,153.3a.1.1,0,0,1,.06-.12.25.25,0,0,1,.15,0,7.54,7.54,0,0,0,3.42-.8.6.6,0,0,1,.29-.08c.47,0-.29.54-.39.61a4,4,0,0,1-3.43.5A.18.18,0,0,1,96.07,153.3Z" style="opacity:0.2"></path><path d="M88.31,138.8l3.56-1.16a1.8,1.8,0,0,0-2.29-1.24A2,2,0,0,0,88.31,138.8Z" style="fill:#e0e0e0"></path><path d="M104,139.5l-3.51-1.42a1.81,1.81,0,0,1,2.4-1.09A2,2,0,0,1,104,139.5Z" style="fill:#e0e0e0"></path><path d="M91.79,142.48a1.6,1.6,0,0,1-1.35,1.76A1.5,1.5,0,0,1,88.7,143a1.61,1.61,0,0,1,1.35-1.77A1.51,1.51,0,0,1,91.79,142.48Z" style="fill:#e0e0e0"></path><path d="M102.73,142.72a1.6,1.6,0,0,1-1.35,1.77,1.5,1.5,0,0,1-1.74-1.29,1.61,1.61,0,0,1,1.35-1.77A1.51,1.51,0,0,1,102.73,142.72Z" style="fill:#e0e0e0"></path><g style="opacity:0.2"><path d="M88.31,138.8l3.56-1.16a1.8,1.8,0,0,0-2.29-1.24A2,2,0,0,0,88.31,138.8Z"></path><path d="M104,139.5l-3.51-1.42a1.81,1.81,0,0,1,2.4-1.09A2,2,0,0,1,104,139.5Z"></path><path d="M91.79,142.48a1.6,1.6,0,0,1-1.35,1.76A1.5,1.5,0,0,1,88.7,143a1.61,1.61,0,0,1,1.35-1.77A1.51,1.51,0,0,1,91.79,142.48Z"></path><path d="M102.73,142.72a1.6,1.6,0,0,1-1.35,1.77,1.5,1.5,0,0,1-1.74-1.29,1.61,1.61,0,0,1,1.35-1.77A1.51,1.51,0,0,1,102.73,142.72Z"></path></g><path d="M91.46,148.39l4.87,1.38L97,140.9C95,141.06,93.21,144.43,91.46,148.39Z" style="fill:#e0e0e0"></path><path d="M96.94,162.68a18.2,18.2,0,0,0,9.61-2.85A10.9,10.9,0,0,0,110,156a10.84,10.84,0,0,1-3,5c-4,3.29-10.11,3.3-10.11,3.3Z" style="fill:#e0e0e0"></path></g><path d="M93.51,187.79c-2.1-4.75-2.31-6.7-1.76-9.13s2.41-10.35,5.19-13.37l-.13,3.79A73.48,73.48,0,0,0,93.51,187.79Z" style="fill:#f5f5f5"></path><path d="M93.51,187.79a24,24,0,0,0,2.13-5.08c.56-2.33,1.29-3.62,5.51-6.82s10.51-10.42,11.41-12.12l0-1.15s.76.11.87,2.2c.07,1.43.13,2.34.13,2.34C110.84,172.14,101.92,180.06,93.51,187.79Z" style="fill:#f5f5f5"></path><g id="freepik--arm--inject-1"><g id="freepik--arm--inject-1"><path d="M121.67,256.89a3,3,0,0,0-.65.81.86.86,0,0,0,.1,1,1,1,0,0,0,.43.21,3.81,3.81,0,0,0,3.06-.6,8.76,8.76,0,0,0,2.2-2.3,2.24,2.24,0,0,1,.76-.77c1.44-.7.74,1.71.63,2.28a25.3,25.3,0,0,1-1.36,4.67c-.36,1.18-3.29,3.89-4,5s-.65,2.37-.11,2.86,1.68-.25,3.08-1.64a28,28,0,0,0,2.94-2.91c.53-.79,1.09-1.59,1.09-1.59a16.59,16.59,0,0,1-1.14,2.85c-.51.8-2.45,2.81-3.06,3.81a2.19,2.19,0,0,0,.24,2.49c.35.38.53,1,2.39-.93a29.09,29.09,0,0,0,2.59-2.88,2.78,2.78,0,0,0,2.73-.88,27.57,27.57,0,0,0,2.88-4.22,3.82,3.82,0,0,0,2.31-2c.75-1.56,1.74-4.06,2.46-6.07s.3-7.12.68-10.65c.11-1.09,1.15-13.33,1.65-21,.37-5.69.06-12.19-.62-15.14-1.61-6.94-1.5-6.07-4-15.66-1.65-6.2-3-10.63-4.07-13.61-1.68-4.57-2.75-6.62-9.33-9-3.61,2.9-5,10.05-2.63,23.64a133.27,133.27,0,0,0,6.65,18.91s1,29.59,1,30.11a2.83,2.83,0,0,1-1.15,2.45c-.77.68-1.66,1.21-2.4,1.93-2.41,2.33-2.91,6.1-5.14,8.59Z" style="fill:#f0f0f0"></path><path d="M130.9,269.2a18.45,18.45,0,0,0,2.66-4.15,21.61,21.61,0,0,0,1.61-4.66c-.59,1.53-1.19,3.05-1.91,4.52A36.59,36.59,0,0,1,130.9,269.2Z" style="opacity:0.1"></path><path d="M136.51,264.1a8.57,8.57,0,0,0,1.25-2.12,11.33,11.33,0,0,0,.73-2.36c-.39.73-.69,1.49-1,2.23Z" style="opacity:0.1"></path><path d="M129.88,263.86a22.28,22.28,0,0,0,2-3.74,9,9,0,0,1-2.48,5.09Z" style="opacity:0.1"></path></g><path d="M125,170.54c6.51,2,8.35,3.39,9.88,5.82,1.85,3,2.72,6.52,6.06,18s4.42,16.51,4.51,19a67.88,67.88,0,0,1-.75,13.67c-.62,4.92-.95,8.49-1.87,16-3.41,1.33-11.55,1.21-13.23-1,0-5.08-.19-8.17-.28-13.92-.11-7.15-.48-12.72-.48-12.72l-7.16-21.5S117.63,176.11,125,170.54Z" style="fill:#e0e0e0"></path><g style="opacity:0.1"><path d="M125,170.54c6.51,2,8.35,3.39,9.88,5.82,1.85,3,2.72,6.52,6.06,18s4.42,16.51,4.51,19a67.88,67.88,0,0,1-.75,13.67c-.62,4.92-.95,8.49-1.87,16-3.41,1.33-11.55,1.21-13.23-1,0-5.08-.19-8.17-.28-13.92-.11-7.15-.48-12.72-.48-12.72l-7.16-21.5S117.63,176.11,125,170.54Z"></path></g></g></g></g></g><g id="freepik--spotlight-2--inject-1"><g id="freepik--Lamp--inject-1"><path id="freepik--sphere-12--inject-1" d="M233.07,86.31c0-2.5,1.65-5,5-6.91,6.61-3.81,17.33-3.81,23.94,0,3.31,1.91,5,4.41,5,6.91,0,9.35-8.66,14.9-16.93,14.9S233.07,95.66,233.07,86.31Z" style="fill:#fff"></path><path d="M277.78,79.82a10.18,10.18,0,0,0-.09-1.23c-1-8-11.88-18.21-27.69-18.21-16,0-26.94,10.48-27.73,18.52a4.36,4.36,0,0,0,0,.51c0,.14,0,.28,0,.41h0c0,4.11,2.71,8.21,8.14,11.34,10.85,6.27,28.43,6.27,39.28,0,5.43-3.13,8.14-7.23,8.14-11.34Z" style="fill:#455a64"></path><path d="M276,85.43c-5.16,6.13-24.21,10.76-37.93,5.3s-15-16.88-8.43-23.51c-4.37,3.53-7,7.88-7.39,11.68a4.36,4.36,0,0,0,0,.51c0,.14,0,.28,0,.41h0c0,4.11,2.71,8.21,8.14,11.34,10.84,6.27,28.43,6.27,39.28,0A18.34,18.34,0,0,0,276,85.43Z" style="fill:#37474f"></path><path id="freepik--sphere-12--inject-1" d="M261.48,69.5c0,1.7-1.12,3.4-3.36,4.69-4.48,2.59-11.76,2.59-16.24,0-2.24-1.29-3.37-3-3.37-4.69,0-6.34,5.88-10.1,11.49-10.1S261.48,63.16,261.48,69.5Z" style="fill:#37474f"></path><path d="M258.12,74.19a8.42,8.42,0,0,0,1.9-1.46c-3.47,2.65-11.54,3.34-16.19.06-4.4-3.1-3.65-9.42,1.2-12.4-3.64,1.51-6.52,4.68-6.52,9.11,0,1.7,1.13,3.4,3.37,4.69C246.36,76.78,253.64,76.78,258.12,74.19Z" style="fill:#263238"></path><path id="freepik--sphere-12--inject-1" d="M253.38,61.84a1.68,1.68,0,0,1-1,1.38,5.3,5.3,0,0,1-4.78,0,1.68,1.68,0,0,1-1-1.38,3.38,3.38,0,1,1,6.76,0Z" style="fill:#263238"></path><path d="M250.66,22.23a.31.31,0,0,0-.19-.27,1,1,0,0,0-.94,0,.31.31,0,0,0-.19.27V59.41a.33.33,0,0,0,.19.27,1,1,0,0,0,.94,0,.33.33,0,0,0,.19-.27Z"></path><path d="M249.53,22a.31.31,0,0,0-.19.27.33.33,0,0,0,.19.27,1,1,0,0,0,.94,0,.33.33,0,0,0,.19-.27.31.31,0,0,0-.19-.27A1,1,0,0,0,249.53,22Z" style="fill:#455a64"></path></g><g id="freepik--Light--inject-1"><path d="M311.52,459.07c-34,19.62-89.07,19.62-123,0-17-9.81-25.47-22.66-25.47-35.51a29.62,29.62,0,0,1,.48-5.31L222.22,79.92a9.47,9.47,0,0,0,.8,3.72,12.65,12.65,0,0,0,2.38,3.64,17.24,17.24,0,0,0,2.19,2c.55.43,1.14.85,1.78,1.26.32.2.65.4,1,.59a29.51,29.51,0,0,0,4.35,2.06l.27.09c3,5,9.1,7.9,15,7.9s12-2.86,15-7.9a30.1,30.1,0,0,0,4.62-2.15c.36-.2.7-.41,1-.62l.24-.17.72-.48.24-.18.66-.51.2-.16.64-.55.14-.13.63-.6.09-.1c.21-.22.42-.44.61-.66l.05-.06c.2-.24.4-.48.58-.72l0,0a10.6,10.6,0,0,0,2.29-6.38l58.73,338.43C339.17,432.81,330.85,447.91,311.52,459.07Z" style="fill:#F7CCAC;opacity:0.15"></path></g></g><g id="freepik--spotlights-1--inject-1"><g id="freepik--lamp--inject-1"><path id="freepik--sphere-12--inject-1" d="M85.18,86.31c0-2.5,1.66-5,5-6.91,6.61-3.81,17.33-3.81,23.94,0,3.31,1.91,5,4.41,5,6.91,0,9.35-8.66,14.9-16.93,14.9S85.18,95.66,85.18,86.31Z" style="fill:#F7CCAC"></path><path id="freepik--sphere-12--inject-1" d="M85.18,86.31c0-2.5,1.66-5,5-6.91,6.61-3.81,17.33-3.81,23.94,0,3.31,1.91,5,4.41,5,6.91,0,9.35-8.66,14.9-16.93,14.9S85.18,95.66,85.18,86.31Z" style="fill:#fff;opacity:0.4"></path><path d="M129.89,79.82a8.48,8.48,0,0,0-.09-1.23c-1-8-11.88-18.21-27.69-18.21-16,0-26.94,10.48-27.73,18.52l0,.51c0,.14,0,.28,0,.41h0c0,4.11,2.71,8.21,8.14,11.34,10.85,6.27,28.44,6.27,39.28,0,5.43-3.13,8.14-7.23,8.14-11.34Z" style="fill:#455a64"></path><path d="M128.13,85.43c-5.16,6.13-24.21,10.76-37.93,5.3s-15-16.88-8.42-23.51c-4.38,3.53-7,7.88-7.4,11.68l0,.51c0,.14,0,.28,0,.41h0c0,4.11,2.71,8.21,8.14,11.34,10.85,6.27,28.44,6.27,39.28,0A18.25,18.25,0,0,0,128.13,85.43Z" style="fill:#37474f"></path><path id="freepik--sphere-12--inject-1" d="M113.6,69.5c0,1.7-1.12,3.4-3.37,4.69-4.48,2.59-11.75,2.59-16.24,0-2.24-1.29-3.36-3-3.36-4.69,0-6.34,5.87-10.1,11.48-10.1S113.6,63.16,113.6,69.5Z" style="fill:#37474f"></path><path d="M110.23,74.19a8.42,8.42,0,0,0,1.9-1.46c-3.47,2.65-11.53,3.34-16.19.06-4.4-3.1-3.64-9.42,1.21-12.4-3.65,1.51-6.52,4.68-6.52,9.11,0,1.7,1.12,3.4,3.36,4.69C98.48,76.78,105.75,76.78,110.23,74.19Z" style="fill:#263238"></path><path id="freepik--sphere-12--inject-1" d="M105.49,61.84a1.68,1.68,0,0,1-1,1.38,5.3,5.3,0,0,1-4.78,0,1.68,1.68,0,0,1-1-1.38,3.38,3.38,0,0,1,6.76,0Z" style="fill:#263238"></path><path d="M102.77,22.23a.31.31,0,0,0-.19-.27,1,1,0,0,0-.94,0,.31.31,0,0,0-.19.27V59.41a.33.33,0,0,0,.19.27,1,1,0,0,0,.94,0,.33.33,0,0,0,.19-.27Z"></path><path d="M101.64,22a.31.31,0,0,0-.19.27.33.33,0,0,0,.19.27,1,1,0,0,0,.94,0,.33.33,0,0,0,.19-.27.31.31,0,0,0-.19-.27A1,1,0,0,0,101.64,22Z" style="fill:#455a64"></path></g><g id="freepik--lamp--inject-1"><path id="freepik--sphere-12--inject-1" d="M414.82,86.31c0-2.5-1.66-5-5-6.91-6.61-3.81-17.33-3.81-23.94,0-3.31,1.91-5,4.41-5,6.91,0,9.35,8.66,14.9,16.93,14.9S414.82,95.66,414.82,86.31Z" style="fill:#F7CCAC"></path><path id="freepik--sphere-12--inject-1" d="M414.82,86.31c0-2.5-1.66-5-5-6.91-6.61-3.81-17.33-3.81-23.94,0-3.31,1.91-5,4.41-5,6.91,0,9.35,8.66,14.9,16.93,14.9S414.82,95.66,414.82,86.31Z" style="fill:#fff;opacity:0.4"></path><path d="M370.11,79.82a8.48,8.48,0,0,1,.09-1.23c1-8,11.88-18.21,27.69-18.21,16,0,26.94,10.48,27.73,18.52l0,.51c0,.14,0,.28,0,.41h0c0,4.11-2.72,8.21-8.14,11.34-10.85,6.27-28.44,6.27-39.28,0-5.43-3.13-8.14-7.23-8.14-11.34Z" style="fill:#455a64"></path><path d="M371.87,85.43c5.16,6.13,24.21,10.76,37.93,5.3s15-16.88,8.42-23.51c4.38,3.53,7,7.88,7.4,11.68l0,.51c0,.14,0,.28,0,.41h0c0,4.11-2.72,8.21-8.14,11.34-10.85,6.27-28.44,6.27-39.28,0A18.25,18.25,0,0,1,371.87,85.43Z" style="fill:#37474f"></path><path id="freepik--sphere-12--inject-1" d="M386.4,69.5c0,1.7,1.12,3.4,3.37,4.69,4.48,2.59,11.75,2.59,16.24,0,2.24-1.29,3.36-3,3.36-4.69,0-6.34-5.87-10.1-11.48-10.1S386.4,63.16,386.4,69.5Z" style="fill:#37474f"></path><path d="M389.77,74.19a8.72,8.72,0,0,1-1.91-1.46c3.48,2.65,11.54,3.34,16.2.06,4.4-3.1,3.64-9.42-1.21-12.4,3.65,1.51,6.52,4.68,6.52,9.11,0,1.7-1.12,3.4-3.36,4.69C401.52,76.78,394.25,76.78,389.77,74.19Z" style="fill:#263238"></path><path id="freepik--sphere-12--inject-1" d="M394.51,61.84a1.68,1.68,0,0,0,1,1.38,5.3,5.3,0,0,0,4.78,0,1.68,1.68,0,0,0,1-1.38,3.38,3.38,0,1,0-6.76,0Z" style="fill:#263238"></path><path d="M397.23,22.23a.31.31,0,0,1,.19-.27,1,1,0,0,1,.94,0,.31.31,0,0,1,.19.27V59.41a.35.35,0,0,1-.19.27,1,1,0,0,1-.94,0,.33.33,0,0,1-.19-.27Z"></path><path d="M398.36,22a.33.33,0,0,1,.19.27.35.35,0,0,1-.19.27,1,1,0,0,1-.94,0,.33.33,0,0,1-.19-.27.31.31,0,0,1,.19-.27A1,1,0,0,1,398.36,22Z" style="fill:#455a64"></path></g></g></svg>
